<?xml version="1.0" encoding="UTF-8"?><svg id="Layer_2" xmlns="http://www.w3.org/2000/svg" viewBox="0 0 500 500"><g id="vector"><g><path d="M500,500v-6.64c-1.38,2.03-2.44,4.28-3.15,6.64h3.15Z"/><path d="M458.98,443.85s-.02,0-.03-.02c-.01,0-.02,0-.03-.01,.01,0,.03,.01,.06,.03Z"/><path d="M499.98,281.07s.01,.03,.02,.05v-37.75c-1.79,2.63-3.05,5.65-3.69,8.76-1.98,9.63,.79,19.77,3.68,28.94Z"/><path d="M343.88,499.64c-.14,.12-.26,.24-.39,.36h15.56c-4.47-3.25-10.72-4.23-15.17-.36Z"/><path d="M390.02,480.85c-3.38-3.76-8.8-3.4-12.49-.29-3.7,3.13-5.05,8.36-6.42,12.82-.67,2.19-1.28,4.4-1.86,6.62h24.75c.48-3.06,.29-6.16-.19-9.31-.53-3.46-1.39-7.16-3.79-9.84Zm-5.84,14.4c.02,.27,.03,.49,.03,.47,0,.04,0,.08,0,.12-.01-.2-.02-.39-.03-.59Z"/><path d="M478.29,50.55c8.32-12.75,14.67-32.12-.66-41.82-6.27-3.96-13.68-2.68-18.96,1.78,.14-3.53,.11-7.1-.68-10.51h-8.04c3.04,8.45-.43,18.87,1.82,27.46,.24,3.66,1.31,7.33,2.99,10.72,2.66,5.34,6.69,9.63,11.02,13.61-1.17,1.42-2.39,2.8-3.65,4.15-2.36,2.53-4.83,4.96-7.34,7.34,.01-.15,.03-.3,.05-.45,.46-4.79,.34-9.62-.73-14.32-1.96-8.58-7.41-16.14-15.9-19.12-3.85-1.35-8.29-1.55-12.18-.24-4.43,1.49-7.99,4.71-11.11,8.08-2.9,3.13-5.66,6.45-7.96,10.02-.22-.59-.44-1.18-.65-1.77-.31-.85-.62-1.71-.92-2.58,1.86-.95,3.58-2.31,5.03-4.04,5.03-6.02,9.78-16.23,6.58-24-1.45-3.53-4.6-6.64-8.43-7.42-4.46-.91-8.46,1.42-10.91,5.07-4.14,6.17-4.43,14.3-3.34,21.39,.07,.43,.16,.86,.24,1.3-1.15-1.34-2.03-3-2.71-4.42-1.91-3.98-3.1-8.45-4.21-12.71-.43-1.66-.81-3.33-1.16-5.01,2.82-2.32,5.09-5.39,6.51-9.11,.5-1.31,.82-2.63,1.03-3.96h-24.75c-.59,2.26-1.14,4.53-1.68,6.8-3.21-1.54-5.41-4.47-8.33-6.66-.06-.05-.13-.09-.2-.14h-15.56c-8.4,7.85-.64,19.56,6.35,25.22,3.49,2.83,7.24,4.58,11.18,6.39-1.87,5.38-4.23,10.59-7.49,15.24-1.88-6.14-4.91-12-9.27-16.27-4.34-4.25-10.76-4.57-15.22-.29-4.21,4.04-4.45,10.11-3.56,15.51,1.42,8.64,7.26,17.73,16.63,18.73,1.35,.14,2.66,.1,3.92-.09-.24,3.49-.94,6.97-2.11,10.3-1.53,4.35-3.95,8.55-6.95,12.06-1.9,2.21-6.34,7.81-9.78,6.95-.16-.08-.32-.15-.49-.21,.81,.3-.42-.32-.65-.46-.12-.08-.24-.17-.36-.25-1.68-1.73-2.55-5.28-3.14-7.13-1.57-4.9-3.41-9.65-6.11-14.05-.71-1.16-1.49-2.33-2.32-3.49,1.31-2.18,2.48-4.48,3.48-6.86,7.5-17.91,4.72-37.99-1.92-55.7-.7-1.87-1.41-3.73-2.1-5.59h-9.68c.92,2.68,1.93,5.34,2.93,8.03,6.27,16.76,9.3,36.1,.9,52.62-4.19-4.09-9.1-7.42-14.49-8.85-11.47-3.04-22.66,4.25-31.4,10.85-2.4,1.81-4.65,3.73-6.82,5.73-5.78-8.49-8.74-19.72-13.25-28.27-.56-1.07-1.17-2.13-1.79-3.17,4.65-6.8,8-14.9,10.87-22.12,1.93-4.88,3.71-9.82,5.33-14.81h-9.69c-.56,1.67-1.12,3.34-1.71,5-2.91,8.18-6,16.6-10.41,24.14-2.41-2.77-5.13-5.27-8.23-7.27-6.95-4.5-17.26-6.38-24.42-1.29-6.17,4.39-7.61,12.65-4.93,19.46,3.07,7.81,10.63,12.27,18.97,11.93,7.32-.3,13.13-3.22,17.86-7.57,3.27,6.4,5.47,13.3,8.49,19.82,1.77,3.82,3.82,7.5,6.29,10.85-3.16,3.45-6.15,7.07-9.1,10.82-5.39,6.87-13.39,16.54-23.34,15-3.48-.54-6.97-2.76-8.17-6.17-.06-.17-.1-.34-.15-.51-.02-.98-.17-1.92-.43-2.83-.06-1.39,.03-2.81,.09-4.17,.1-2.39,.24-4.78,.41-7.17,3.25-.51,6.27-2.15,8.33-4.87,2.97-3.91,2.92-9.28-.64-12.82-2.92-2.9-7.9-4.01-11.53-1.82-2.78,1.67-3.83,4.64-4.31,7.79-2.04-1.73-3.8-3.96-5.17-5.79-2.88-3.86-5.18-8.2-7.05-12.63-1.09-2.6-2.04-5.26-2.92-7.94,.74-1.37,1.46-2.74,2.15-4.13,2.31-4.64,4.54-9.47,6.11-14.42,1.37-4.33,1.79-9.53-1.02-13.39-3.15-4.33-9.01-5.04-13.59-2.64-3.88,2.03-6.35,6.12-7.02,10.36-1.2,7.54,1.09,15.51,3.52,22.88-2.17,3.7-4.47,7.31-6.83,10.86-.82,1.24-1.68,2.46-2.52,3.69-.88-1.91-1.83-3.77-2.84-5.59-.03-.35-.08-.69-.15-1.03-.15-.67-.44-1.22-.82-1.64,1.12-2.47,1.92-5.12,2.4-7.65,1.95-10.29,.73-21.51-6.84-29.34-1.25-1.29-2.82-2.51-4.57-3.56-.01-1.28-.07-2.55-.19-3.81-.08-.83-.18-1.68-.3-2.54h-7.98c.1,.88,.16,1.75,.21,2.54,.02,.24,.02,.49,.03,.73-4.83-.76-9.59,.44-12.34,5.19-4.15,7.14,.59,15.61,5.44,22.02-.36,.81-.7,1.62-1.03,2.45-1.89,4.8-2.95,10.06-1.66,15.16,1.3,5.16,5.07,9.18,10.46,9.83,1.95,.24,3.74,.09,5.38-.35-.79,1.09-1.66,2.12-2.64,3.07-3.41,3.32-7.9,5.74-12.66,6.34-5.92,.75-13.35-.92-18.71-3.51-3.99-1.94-6.44-5.26-8.72-8.81,6.56-1.39,13.77-3.15,17.83-8.93,5.02-7.15,.92-14.84-3.7-20.82-1.9-2.46-4.11-5.01-5.08-8.01-1.08-3.34-.29-7.04,1.33-10.07,1.45-2.72,3.47-4.95,5.81-6.85h-11.24c-.32,.43-.62,.87-.92,1.32-4.78,7.39-5.18,16.35-.43,23.82,2.48,3.9,10.66,11.19,6.47,16.08-1.94,2.27-5.4,3.13-8.16,3.83-2.15,.55-4.32,.99-6.49,1.47-1.44-3.22-3.32-6.29-5.57-9.19-.47-.6-.96-1.21-1.45-1.82,.36-1.26,.63-2.56,.79-3.9,.98-8.63-2.98-16.7-9.88-21.77-6.53-4.8-14.98-6.59-22.81-7.99-8.72-1.56-17.98-2.47-26.61,.11-8.32,2.48-14.93,8.19-19.26,15.64-4.05,6.97-6.1,14.64-7.27,22.57-.65-1.55-1.28-3.1-1.84-4.66-2.23-6.22-4.09-12.65-5.26-19.16C2.96,10.97,2.66,5.06,4.95,0H0V31.12c1.43,4.55,3.06,9.08,5.1,13.4,.78,1.64,1.56,3.3,2.42,4.91-2.6,.95-5.11,2.13-7.52,3.5v11.36c1.67-1.21,3.41-2.33,5.22-3.33,1.31-.72,2.69-1.38,4.11-1.97-.3,4.95-.6,9.86-1.16,14.63-1.6,13.53-4.4,26.91-8.17,40.01v28.24c.28-.69,.56-1.38,.82-2.06,7.4-18.67,12.53-38.21,15.35-58.09,1.19-8.4,1.83-16.82,2.44-25.26,2.83-.35,5.68-.27,8.43,.36,7.83,1.81,12.37,8.35,13.95,15.91,.26,1.26,.42,2.53,.51,3.81-6.58,1.12-13.22,3.15-18.24,7.37-7.27,6.12-7.05,16.03-2.21,23.6,.5,.78,1.04,1.53,1.6,2.25-1.51,1.52-2.95,3.09-4.27,4.77-5.76,7.4-9.1,16.38-9.71,25.73-.46,7.14,1.5,15.51,6.98,20.5,6.79,6.19,16.6,4.91,22.84-1.44,3.21-3.26,5.17-7.5,6.52-11.82,1.38-4.42,2.51-9.1,3-13.71,.99-9.43-4.42-16.49-10.93-22.6-.35-.33-.74-.69-1.15-1.07,.97-.95,1.94-1.91,2.89-2.9,6.1-6.37,10.2-13.84,11.68-22.45,1.29-.09,2.58-.13,3.87-.12-2.69,6.47-4.25,13.41-4.33,20.43-.12,9.89,3.36,18.83,6.77,27.94,6.27,16.76,9.3,36.1,.9,52.62-4.19-4.09-9.1-7.42-14.49-8.85-11.47-3.04-22.66,4.25-31.4,10.85-2.4,1.81-4.65,3.73-6.82,5.73-1.93-2.83-3.54-5.97-5-9.21v28.05c1.07-1.3,2.15-2.59,3.29-3.84,.45-.5,.92-.97,1.38-1.46,.65,.56,1.3,1.11,1.99,1.62,6.53,4.87,15.04,7.02,23.12,6.51,11.3-.71,21.07-5.99,28.34-13.9,1.01,1.53,1.96,3.11,2.79,4.76,.87,1.72,1.57,3.66,2.24,5.66-.57,0-1.15,.03-1.74,.14-3.87,.72-7.2,3.22-9.95,5.91-2.61,2.55-4.77,5.64-7.96,7.52-6.9,4.06-14.74-2.47-21.65-3.69-7.67-1.35-15.31,1.54-17.57,9.56-.77,2.73-.76,5.37-.25,7.91-1.54,1.28-2.89,2.78-4.03,4.45v37.75c1.43,4.55,3.06,9.08,5.1,13.4,.78,1.64,1.56,3.3,2.42,4.91-2.6,.95-5.11,2.13-7.52,3.5v11.36c1.67-1.21,3.41-2.33,5.22-3.33,1.31-.72,2.69-1.38,4.11-1.97-.3,4.95-.6,9.86-1.16,14.63-1.6,13.53-4.4,26.91-8.17,40.01v28.24c.28-.69,.56-1.38,.82-2.06,7.4-18.67,12.53-38.21,15.35-58.09,1.19-8.4,1.83-16.82,2.44-25.26,2.83-.35,5.68-.27,8.43,.36,7.83,1.81,12.37,8.35,13.95,15.91,.26,1.26,.42,2.53,.51,3.81-6.58,1.12-13.22,3.15-18.24,7.37-7.27,6.12-7.05,16.03-2.21,23.6,.5,.78,1.04,1.53,1.6,2.25-1.51,1.52-2.95,3.09-4.27,4.77-5.76,7.4-9.1,16.38-9.71,25.73-.46,7.14,1.5,15.51,6.98,20.5,6.79,6.19,16.6,4.91,22.84-1.44,3.21-3.26,5.17-7.5,6.52-11.82,1.38-4.42,2.51-9.1,3-13.71,.99-9.43-4.42-16.49-10.93-22.6-.35-.33-.74-.69-1.15-1.07,.97-.95,1.94-1.91,2.89-2.9,6.1-6.37,10.2-13.84,11.68-22.45,1.29-.09,2.58-.13,3.87-.12-2.69,6.47-4.25,13.41-4.33,20.43-.12,9.89,3.36,18.83,6.77,27.94,6.27,16.76,9.3,36.1,.9,52.62-4.19-4.09-9.1-7.42-14.49-8.85-11.47-3.04-22.66,4.25-31.4,10.85-2.4,1.81-4.65,3.73-6.82,5.73-1.93-2.83-3.54-5.97-5-9.21v28.05c1.07-1.3,2.15-2.59,3.29-3.84,.45-.5,.92-.97,1.38-1.46,.65,.56,1.3,1.11,1.99,1.62,6.53,4.87,15.04,7.02,23.12,6.51,11.3-.71,21.07-5.99,28.34-13.9,1.01,1.53,1.96,3.11,2.79,4.76,.87,1.72,1.57,3.66,2.24,5.66-.57,0-1.15,.03-1.74,.14-3.87,.72-7.2,3.22-9.95,5.91-2.61,2.55-4.77,5.64-7.96,7.52-6.9,4.06-14.74-2.47-21.65-3.69-7.67-1.35-15.31,1.54-17.57,9.56-.77,2.73-.76,5.37-.25,7.91-1.54,1.28-2.89,2.78-4.03,4.45v6.64H4.95c.23-.51,.48-1.02,.77-1.51,.39-.67,.83-1.31,1.32-1.92,.68,1.18,1.42,2.32,2.2,3.44h15.8c.31-1.38,.43-2.79,.37-4.05-.31-7.52-6.77-12.14-13.75-10.79-.01-2.21,.73-4.25,2.88-5.42,4.82-2.63,11.57,1.71,15.98,3.37,6.08,2.29,12.63,2.5,18.03-1.54,2.54-1.9,4.68-4.24,6.89-6.49,1.77-1.8,4.73-5.15,7.55-5.18,1.21-.01,3.46,1.78,4.74,2.76,.1,.08,.2,.16,.3,.24,1.53,2.12,3.51,3.82,6.31,4.74,9.9,3.26,19.49-8.04,24.12-15.36,5.19-8.21,7.87-18.13,7.32-27.84,3.76-3.36,6.78-7.85,9.06-11.89,1.79-3.17,3.29-6.47,4.61-9.86,.97,1.45,1.69,3.12,2.21,5.05,2.76,10.19,.56,21.14-2.81,30.9-3.03,8.77-7.05,17.65-12,25.64-3.58,.53-7.12,1.31-10.61,2.23-5.23,1.39-10.79,2.8-15.01,6.36-3.87,3.26-6.09,8.91-4.46,13.87,.46,1.41,1.13,2.48,1.99,3.26h13.44c5.13-1.82,9.76-4.82,13.65-8.61,2.32-2.26,4.37-4.77,6.22-7.42,4.29-.35,8.61-.25,12.94,.55,2.6,.48,5.26,.91,7.88,.78-2.54,.8-4.81,2.18-6.91,3.81-5.12,2.79-9.88,6.13-13.38,10.89h11.24c4.09-3.33,9.15-5.67,13.82-7.85,.23-.11,.43-.24,.62-.37,0,0,.02,0,.02,0,4.12,.52,5.19,4.53,5.6,8.22h7.98c-.59-4.34-1.76-8.9-4.9-11.98-2.68-2.63-6.37-3.68-10.03-3.48,.34-.12,.68-.25,1.02-.4,3.63-1.62,6.54-4.95,7.12-8.94,.6-4.11-1.52-7.13-4.34-9.84-.2-.19-.59-.57-.84-.81,.03-.02,.05-.05,.09-.07,.59-.4,1-2.07,1.35-2.76,.32-.63,.66-1.26,.99-1.88,3.99,5.67,11.74,10.62,17.46,5.03,5.51-5.37,4.71-15.92,3.43-22.78-.4-2.12-.93-4.21-1.54-6.28,6.12-3.75,13.71-7,20.56-3.76,5.89,2.79,7.83,9.72,8.3,15.72,.09,1.1,.14,2.21,.17,3.32-4.48,4.11-8.86,8.33-12.85,12.93-5.34,6.14-11.81,13.86-12.78,22.21-.73,6.35,2.93,11.99,8.08,13.79h7.07c.86-.29,1.73-.69,2.59-1.22,14.21-8.61,16.91-28.52,17.26-43.7,7.83-7.09,15.8-14.04,22.6-22.13,3.54,3.16,6.73,6.54,9.4,10.32-1.33,1.61-2.6,3.28-3.78,4.97-5.17,7.4-9.4,15.94-11.39,24.78-1.82,8.1-3.23,21.79,5.79,26.28,.54,.27,1.09,.5,1.63,.69h8.81c4.67-1.6,8.7-5.55,11.24-9.98,4.09-7.15,5.89-15.58,5.42-23.77-.43-7.57-2.53-15-5.97-21.75,3.39-3.34,7.19-6.25,11.36-8.53,1.31-.72,2.69-1.38,4.11-1.97-.3,4.95-.6,9.86-1.16,14.63-2.07,17.47-6.12,34.7-11.71,51.38h9.69c4.59-14.1,7.94-28.6,10.02-43.29,1.19-8.4,1.83-16.82,2.44-25.26,2.83-.35,5.68-.27,8.43,.36,7.83,1.81,12.37,8.35,13.95,15.91,.26,1.26,.42,2.53,.51,3.81-6.58,1.12-13.22,3.15-18.24,7.37-7.27,6.12-7.05,16.03-2.21,23.6,.5,.78,1.04,1.53,1.6,2.25-1.51,1.52-2.95,3.09-4.27,4.77-2.51,3.22-4.56,6.74-6.12,10.47h10.62c1.78-3.05,3.97-5.71,6.35-8.23,.3,.28,.59,.56,.89,.84,2.38,2.23,4.92,4.57,6.65,7.38h10.24c-1.81-5.29-5.62-9.76-9.93-13.8-.35-.33-.74-.69-1.15-1.07,.97-.95,1.94-1.91,2.89-2.9,6.1-6.37,10.2-13.84,11.68-22.45,1.29-.09,2.58-.13,3.87-.12-2.69,6.47-4.25,13.41-4.33,20.43-.08,6.98,1.63,13.49,3.84,19.91h9.68c-2.46-6.69-4.55-13.41-4.34-20.71,.18-6.41,1.87-12.69,4.63-18.45,1.3,.34,2.58,.76,3.83,1.27-1.22,1.52-2.32,3.14-3.27,4.85-3.81,6.8-5.89,15.6-2.98,23.12,3.38,8.74,12.78,12.36,21.15,7.94,8.24-4.36,10.56-14.85,8.43-23.3-1.3-5.15-4.18-9.77-7.94-13.52,2.33-1.31,4.85-2.28,7.48-2.83,1.19-.25,2.46-.39,3.75-.4-.67,5.58-.66,11.21,1.76,16.21,1.7,3.52,4.76,6.59,8.76,7.12,4.6,.6,8.68-2.35,10.6-6.41,3.88-8.22,.02-17.93-7.3-22.74-1.04-.68-2.14-1.25-3.27-1.74,.66-3.75,1.32-7.5,1.53-11.25,1.76,2.22,3.86,4.16,6.37,5.6,6.62,3.81,15.46,6.15,23.08,5.36,6.77-.7,13.08-3.73,17.97-8.45,1.62-1.57,3.1-3.35,4.36-5.25,.34,.8,.68,1.6,1,2.42-3.38,4.7-6.8,9.36-10.15,14.07-3.26,4.58-7.43,9.79-6,15.81,1.26,5.31,7.03,8.85,11.63,11.06,4.77,2.29,10.56,2.83,15-.52,4.71-3.55,4.64-9.44,4.3-14.78-.52-8.11-2.06-16.12-4.58-23.82,.19-.26,.38-.52,.56-.78,2.98-4.23,5.9-8.51,8.65-12.89,2.8,7.05,6.38,13.76,11.44,19.49,2.42,2.74,5.31,5.38,8.64,7.03-.14,1.5-.28,3.02-.39,4.54-.15-.04-.3-.08-.45-.11-5.82-1.17-11.42,1.99-14.21,7.1-2.69,4.94-2.41,10.09-.87,15.17-2.45,.1-4.79,1.04-6.79,3.37-3.71,4.33-4.81,10.8-5.1,16.42h7.74c.1-1.48,.32-2.92,.6-4.27,.44-2.14,.9-4.85,2.33-6.59,1.13-1.37,2.57-1.25,4-.72,1.06,3.75,1.64,7.52,1.44,11.58h8.48c.11-2.04,.08-4.09-.12-6.13,2.02,1.6,3.7,3.54,4.63,6.08,0,.02,0,.03,.02,.05h8.04c-.19-.82-.42-1.63-.7-2.43-2.25-6.3-7.07-10.42-12.81-13.55-.56-.31-1.14-.61-1.74-.92-.31-.84-.63-1.69-.96-2.53-1.24-3.19-2.62-6.65-1.46-10.06,.76-2.22,2.57-4.58,5.12-4.6,.88,0,1.86,.29,2.7,.79,.02,.27,.03,.55,.05,.82,.47,5.33,2.61,9.84,6.92,13.1,3.55,2.68,7.97,4.06,12.41,4.18,10.29,.27,19.09-6.71,25.48-14.06,2.41-2.77,4.66-5.68,7-8.51v-28.05c-2.92-6.48-5.24-13.37-8.25-19.07-.56-1.07-1.17-2.13-1.79-3.17,4.22-6.16,7.36-13.38,10.04-20.06v-28.24c-1.59,5.51-3.32,10.98-5.24,16.37-2.91,8.18-6,16.6-10.41,24.14-2.41-2.77-5.13-5.27-8.23-7.27-6.95-4.5-17.26-6.38-24.42-1.29-6.17,4.39-7.61,12.65-4.93,19.46,3.07,7.81,10.63,12.27,18.97,11.93,7.32-.3,13.13-3.22,17.86-7.57,3.27,6.4,5.47,13.3,8.49,19.82,1.77,3.82,3.82,7.5,6.29,10.85-3.16,3.45-6.15,7.07-9.1,10.82-5.39,6.87-13.39,16.54-23.34,15-3.48-.54-6.97-2.76-8.17-6.17-.06-.17-.1-.34-.15-.51-.02-.98-.17-1.92-.43-2.83-.06-1.39,.03-2.81,.09-4.17,.1-2.39,.24-4.78,.41-7.17,3.25-.51,6.27-2.15,8.33-4.87,2.97-3.91,2.92-9.28-.64-12.82-2.92-2.9-7.9-4.01-11.53-1.82-2.78,1.67-3.83,4.64-4.31,7.79-2.04-1.73-3.8-3.96-5.17-5.79-2.88-3.86-5.18-8.2-7.05-12.63-1.09-2.6-2.04-5.26-2.92-7.94,.74-1.37,1.46-2.74,2.15-4.13,2.31-4.64,4.54-9.47,6.11-14.42,1.37-4.33,1.79-9.53-1.02-13.39-3.15-4.33-9.01-5.04-13.59-2.64-3.88,2.03-6.35,6.12-7.02,10.36-1.2,7.54,1.09,15.51,3.52,22.88-2.17,3.7-4.47,7.31-6.83,10.86-.82,1.24-1.68,2.46-2.52,3.69-.88-1.91-1.83-3.77-2.84-5.59-.03-.35-.08-.69-.15-1.03-.15-.67-.44-1.22-.82-1.64,1.12-2.47,1.92-5.12,2.4-7.65,1.95-10.29,.73-21.51-6.84-29.34-1.25-1.29-2.82-2.51-4.57-3.56-.01-1.28-.07-2.55-.19-3.81-.5-5.01-1.43-10.83-5.2-14.52-2.68-2.63-6.37-3.68-10.03-3.48,.34-.12,.68-.25,1.02-.4,3.63-1.62,6.54-4.95,7.12-8.94,.6-4.11-1.52-7.13-4.34-9.84-.2-.19-.59-.57-.84-.81,.03-.02,.05-.05,.09-.07,.59-.4,1-2.07,1.35-2.76,.32-.63,.66-1.26,.99-1.88,3.99,5.67,11.74,10.62,17.46,5.03,5.51-5.37,4.71-15.92,3.43-22.78-.4-2.12-.93-4.21-1.54-6.28,6.12-3.75,13.71-7,20.56-3.76,5.89,2.79,7.83,9.72,8.3,15.72,.09,1.1,.14,2.21,.17,3.32-4.48,4.11-8.86,8.33-12.85,12.93-5.34,6.14-11.81,13.86-12.78,22.21-1.15,9.95,8.5,18.17,17.74,12.57,14.21-8.61,16.91-28.52,17.26-43.7,7.83-7.09,15.8-14.04,22.6-22.13,3.54,3.16,6.73,6.54,9.4,10.32-1.33,1.61-2.6,3.28-3.78,4.97-5.17,7.4-9.4,15.94-11.39,24.78-1.82,8.1-3.23,21.79,5.79,26.28,8.76,4.37,17.37-1.75,21.68-9.29,4.09-7.15,5.89-15.58,5.42-23.77-.43-7.57-2.53-15-5.97-21.75,1.91-1.88,3.96-3.63,6.13-5.21v-11.36c-4.07,2.31-7.86,5.16-11.33,8.38-3.07-3.94-6.62-7.41-10.38-10.76,8.32-12.75,14.67-32.12-.66-41.82-6.27-3.96-13.68-2.68-18.96,1.78,.18-4.38,.08-8.82-1.39-12.94-2.25-6.3-7.07-10.42-12.81-13.55-.56-.31-1.14-.61-1.74-.92-.31-.84-.63-1.69-.96-2.53-1.24-3.19-2.62-6.65-1.46-10.06,.76-2.22,2.57-4.58,5.12-4.6,.88,0,1.86,.29,2.7,.79,.02,.27,.03,.55,.05,.82,.47,5.33,2.61,9.84,6.92,13.1,3.55,2.68,7.97,4.06,12.41,4.18,10.29,.27,19.09-6.71,25.48-14.06,2.41-2.77,4.66-5.68,7-8.51v-28.05c-2.92-6.48-5.24-13.37-8.25-19.07-.56-1.07-1.17-2.13-1.79-3.17,4.22-6.16,7.36-13.38,10.04-20.06v-28.24c-1.59,5.51-3.32,10.98-5.24,16.37-2.91,8.18-6,16.6-10.41,24.14-2.41-2.77-5.13-5.27-8.23-7.27-6.95-4.5-17.26-6.38-24.42-1.29-6.17,4.39-7.61,12.65-4.93,19.46,3.07,7.81,10.63,12.27,18.97,11.93,7.32-.3,13.13-3.22,17.86-7.57,3.27,6.4,5.47,13.3,8.49,19.82,1.77,3.82,3.82,7.5,6.29,10.85-3.16,3.45-6.15,7.07-9.1,10.82-5.39,6.87-13.39,16.54-23.34,15-3.48-.54-6.97-2.76-8.17-6.17-.06-.17-.1-.34-.15-.51-.02-.98-.17-1.92-.43-2.83-.06-1.39,.03-2.81,.09-4.17,.1-2.39,.24-4.78,.41-7.17,3.25-.51,6.27-2.15,8.33-4.87,2.97-3.91,2.92-9.28-.64-12.82-2.92-2.9-7.9-4.01-11.53-1.82-2.78,1.67-3.83,4.64-4.31,7.79-2.04-1.73-3.8-3.96-5.17-5.79-2.88-3.86-5.18-8.2-7.05-12.63-1.09-2.6-2.04-5.26-2.92-7.94,.74-1.37,1.46-2.74,2.15-4.13,2.31-4.64,4.54-9.47,6.11-14.42,1.37-4.33,1.79-9.53-1.02-13.39-3.15-4.33-9.01-5.04-13.59-2.64-3.88,2.03-6.35,6.12-7.02,10.36-1.2,7.54,1.09,15.51,3.52,22.88-2.17,3.7-4.47,7.31-6.83,10.86-.82,1.24-1.68,2.46-2.52,3.69-.88-1.91-1.83-3.77-2.84-5.59-.03-.35-.08-.69-.15-1.03-.15-.67-.44-1.22-.82-1.64,1.12-2.47,1.92-5.12,2.4-7.65,1.95-10.29,.73-21.51-6.84-29.34-1.25-1.29-2.82-2.51-4.57-3.56-.01-1.28-.07-2.55-.19-3.81-.5-5.01-1.43-10.83-5.2-14.52-2.68-2.63-6.37-3.68-10.03-3.48,.34-.12,.68-.25,1.02-.4,3.63-1.62,6.54-4.95,7.12-8.94,.6-4.11-1.52-7.13-4.34-9.84-.2-.19-.59-.57-.84-.81,.03-.02,.05-.05,.09-.07,.59-.4,1-2.07,1.35-2.76,.32-.63,.66-1.26,.99-1.88,3.99,5.67,11.74,10.62,17.46,5.03,5.51-5.37,4.71-15.92,3.43-22.78-.4-2.12-.93-4.21-1.54-6.28,6.12-3.75,13.71-7,20.56-3.76,5.89,2.79,7.83,9.72,8.3,15.72,.09,1.1,.14,2.21,.17,3.32-4.48,4.11-8.86,8.33-12.85,12.93-5.34,6.14-11.81,13.86-12.78,22.21-1.15,9.95,8.5,18.17,17.74,12.57,14.21-8.61,16.91-28.52,17.26-43.7,7.83-7.09,15.8-14.04,22.6-22.13,3.54,3.16,6.73,6.54,9.4,10.32-1.33,1.61-2.6,3.28-3.78,4.97-5.17,7.4-9.4,15.94-11.39,24.78-1.82,8.1-3.23,21.79,5.79,26.28,8.76,4.37,17.37-1.75,21.68-9.29,4.09-7.15,5.89-15.58,5.42-23.77-.43-7.57-2.53-15-5.97-21.75,1.91-1.88,3.96-3.63,6.13-5.21v-11.36c-4.07,2.31-7.86,5.16-11.33,8.38-3.07-3.94-6.62-7.41-10.38-10.76Zm-262.56-7.48c-6,.25-11.37-3.28-11.47-9.68-.11-7.36,8.28-8.01,13.88-5.77,4.37,1.75,7.86,5.13,10.68,8.95-3.51,3.61-7.89,6.28-13.1,6.49ZM16.65,493.55c.56,.64,.75,1.58,.82,2.4,.03,.34-.1,.9-.25,1.47-.16-.18-.31-.36-.44-.53-1.01-1.38-2-2.78-2.86-4.26-.01-.02-.02-.04-.03-.06,1.05-.05,2.07,.19,2.76,.98Zm449.09-75.48c-6,.25-11.37-3.28-11.47-9.68-.11-7.36,8.28-8.01,13.88-5.77,4.37,1.75,7.86,5.13,10.68,8.95-3.51,3.61-7.89,6.28-13.1,6.49Zm-6.62,25.96s-.01-.07-.02-.11c.27,.15,.15,.08,0,0,0,0,0-.02,0-.03,.62,.23,.06,.47,.02,.14Zm-.07-.16s0,.01,0,.02c-.02-.01-.04-.02-.06-.03,.03,.02,.04,.02,.06,.04-.04,.15-.09,.5-.21,.65-.07,.1-.16,.18-.24,.27,.04-.26,.07-.52,.11-.77,.02-.11,.04-.21,.06-.31,.06,.03,.13,.08,.18,.1,.04,.01,.06,.02,.09,.03Zm-.69-.48s-.07,.07-.11,.12c-.34,.39-.34-.68,.11-.12Zm-28.88-46.18c-.06-2.23,.58-7.8,4.09-7.37,2.83,.34,.26,6.57-.26,7.94-.82,2.17-1.74,4.3-2.71,6.4-.6-2.29-1.05-4.62-1.12-6.97Zm-14.86,66.43c.18,2.87,1.6,9.11-2.96,8.62-2.22-.24-4.25-1.68-6.08-2.86-1.35-.87-3.66-1.89-3.37-3.74,.33-2.1,2.22-4.16,3.4-5.85,1.68-2.39,3.38-4.75,5.08-7.12,.63-.88,1.27-1.75,1.9-2.63,1.04,4.48,1.74,9.03,2.02,13.59Zm75.35-115.07c-.47,3.41-1.46,6.87-3.01,9.95-1.42,2.83-3.41,6.4-6.66,7.38-7.71,2.33-4.67-13.02-3.76-16.64,1.99-7.84,5.83-15.27,10.56-21.82,2.64,6.64,3.83,14.03,2.86,21.13Zm-24.23-180.5c-6,.25-11.37-3.28-11.47-9.68-.11-7.36,8.28-8.01,13.88-5.77,4.37,1.75,7.86,5.13,10.68,8.95-3.51,3.61-7.89,6.28-13.1,6.49ZM401.94,24.73c.2-2.88,.96-7.17,3.3-9.15,3.02-2.56,5.33,2.77,5.3,5.09-.06,4.17-2.19,8.72-4.42,12.18-.75,1.17-1.71,2.4-2.85,3.33-.99-3.74-1.6-7.55-1.33-11.46ZM379.3,1.63c.08,1.29,.19,2.58,.31,3.87-.49,.38-1.01,.72-1.56,1.02,.4-1.63,.82-3.26,1.25-4.89Zm-22.07,16.67c-2.63-1.99-7.39-5.9-7.22-9.63,.17-3.65,4.46,.67,5.58,1.75,2.88,2.8,5.95,5.12,9.62,6.42-.41,1.71-.84,3.41-1.29,5.11-2.32-1.02-4.62-2.09-6.68-3.65Zm-14.44,36.34c-3.2-.5-5.45-3.92-6.57-6.85-.88-2.29-3.08-9.55,.28-10.84,.04-.02,.06-.03,.08-.04,.02,.03,.05,.06,.14,.09,.87,.38,1.77,1.88,2.31,2.66,1.48,2.14,2.8,4.41,3.86,6.79,1.13,2.56,1.96,5.22,2.49,7.93-.84,.28-1.7,.39-2.58,.25Zm5.68,32.64c5.19-8.21,7.87-18.13,7.32-27.84,3.76-3.36,6.78-7.85,9.06-11.89,1.79-3.17,3.29-6.47,4.61-9.86,.97,1.45,1.69,3.12,2.21,5.05,2.76,10.19,.56,21.14-2.81,30.9-3.03,8.77-7.05,17.65-12,25.64-3.58,.53-7.12,1.31-10.61,2.23-5.23,1.39-10.79,2.8-15.01,6.36-3.87,3.26-6.09,8.91-4.46,13.87,1.13,3.42,3.39,4.97,6.99,4.84,2.83-.1,5.7-.61,8.37-1.55,5.16-1.82,9.81-4.82,13.72-8.64,2.32-2.26,4.37-4.77,6.22-7.42,4.29-.35,8.61-.25,12.94,.55,2.6,.48,5.26,.91,7.88,.78-2.54,.8-4.81,2.18-6.91,3.81-5.58,3.04-10.75,6.73-14.3,12.21-4.78,7.39-5.18,16.35-.43,23.82,2.48,3.9,10.66,11.19,6.47,16.08-1.94,2.27-5.4,3.13-8.16,3.83-2.15,.55-4.32,.99-6.49,1.47-1.44-3.22-3.32-6.29-5.57-9.19-.47-.6-.96-1.21-1.45-1.82,.36-1.26,.63-2.56,.79-3.9,.98-8.63-2.98-16.7-9.88-21.77-6.53-4.8-14.98-6.59-22.81-7.99-8.72-1.56-17.98-2.47-26.61,.11-8.32,2.48-14.93,8.19-19.26,15.64-4.05,6.97-6.1,14.64-7.27,22.57-.65-1.55-1.28-3.1-1.84-4.66-2.23-6.22-4.09-12.65-5.26-19.16-1.07-5.92-1.32-12.49,1.8-17.86,.39-.67,.83-1.31,1.32-1.92,1.22,2.12,2.66,4.15,4.13,6.07,2.46,3.2,6.04,6.01,10.1,3.47,3.17-1.98,4.29-6.65,4.15-10.16-.31-7.52-6.77-12.14-13.75-10.79-.01-2.21,.73-4.25,2.88-5.42,4.82-2.63,11.57,1.71,15.98,3.37,6.08,2.29,12.63,2.5,18.03-1.54,2.54-1.9,4.68-4.24,6.89-6.49,1.77-1.8,4.73-5.15,7.55-5.18,1.21-.01,3.46,1.78,4.74,2.76,.1,.08,.2,.16,.3,.24,1.53,2.12,3.51,3.82,6.31,4.74,9.9,3.26,19.49-8.04,24.12-15.36Zm-2.36,24.65c-2.82,2.12-5.99,3.69-9.44,4.38,1.57-2.01,5.92-3.46,9.44-4.38Zm9.85,109.95c-.12-.07-.28-.19-.45-.36-.43-.44-.74-.97-1.02-1.53-.59-1.18-.91-2.47-1.03-3.76-.17-1.92-.15-3.83-.02-5.75,2,1.4,3.48,3.43,3.95,6.2,.22,1.3,.16,2.71-.39,3.93-.19,.41-.94,1.02-1.05,1.27Zm-32.45-1.64c.68-1.06,1.43-2.07,2.24-3.02,4.06,3.79,6.86,8.99,6.55,14.64-.18,3.27-1.69,6.78-4.85,8.14-2.5,1.08-5.05,.44-6.5-1.86-3.38-5.35-.48-13.13,2.56-17.91Zm1.47-15.05c-1.96-1.07-4-1.94-6.11-2.63,6.97-9.34,16.96-15.89,27.9-19.82,.61,4.69,0,9.52-.71,14.16-.08,.53-.17,1.07-.26,1.61-4.53-.14-9.15,.77-13.21,2.44-2.69,1.11-5.25,2.54-7.6,4.24Zm-18.17,52.86c6.27,16.76,9.3,36.1,.9,52.62-4.19-4.09-9.1-7.42-14.49-8.85-11.47-3.04-22.66,4.25-31.4,10.85-2.4,1.81-4.65,3.73-6.82,5.73-5.78-8.49-8.74-19.72-13.25-28.27-.56-1.07-1.17-2.13-1.79-3.17,4.65-6.8,8-14.9,10.87-22.12,7.4-18.67,12.53-38.21,15.35-58.09,1.19-8.4,1.83-16.82,2.44-25.26,2.83-.35,5.68-.27,8.43,.36,7.83,1.81,12.37,8.35,13.95,15.91,.26,1.26,.42,2.53,.51,3.81-6.58,1.12-13.22,3.15-18.24,7.37-7.27,6.12-7.05,16.03-2.21,23.6,.5,.78,1.04,1.53,1.6,2.25-1.51,1.52-2.95,3.09-4.27,4.77-5.76,7.4-9.1,16.38-9.71,25.73-.46,7.14,1.5,15.51,6.98,20.5,6.79,6.19,16.6,4.91,22.84-1.44,3.21-3.26,5.17-7.5,6.52-11.82,1.38-4.42,2.51-9.1,3-13.71,.99-9.43-4.42-16.49-10.93-22.6-.35-.33-.74-.69-1.15-1.07,.97-.95,1.94-1.91,2.89-2.9,6.1-6.37,10.2-13.84,11.68-22.45,1.29-.09,2.58-.13,3.87-.12-2.69,6.47-4.25,13.41-4.33,20.43-.12,9.89,3.36,18.83,6.77,27.94Zm-4.56,60.88c-3.39,4.01-7.56,7.35-12.43,9.39-7.1,2.98-15.54,3.39-22.71,.42-2.11-.87-3.98-2-5.67-3.33,1.16-1.02,2.34-2.02,3.54-2.99,3.97-3.19,8.19-6.16,12.67-8.59,4.23-2.29,9.01-4,13.78-2.5,4.18,1.31,7.77,4.5,10.82,7.59Zm-93.89-.52s-.07,.07-.11,.12c-.34,.39-.34-.68,.11-.12Zm.36,.65c.02-.11,.04-.21,.06-.31,.06,.03,.13,.08,.18,.1,.04,.01,.06,.02,.09,.03,0,0,0,.01,0,.02-.02-.01-.04-.02-.06-.03,.03,.02,.04,.02,.06,.04-.04,.15-.09,.5-.21,.65-.07,.1-.16,.18-.24,.27,.04-.26,.07-.52,.11-.77Zm.39-.12s0-.02,0-.03c.62,.23,.06,.47,.02,.14,0-.05-.01-.07-.02-.11,.27,.15,.15,.08,0,0Zm-1.47,25.28c-.02-.98-.17-1.92-.43-2.83-.06-1.39,.03-2.81,.09-4.17,.1-2.39,.24-4.78,.41-7.17,3.25-.51,6.27-2.15,8.33-4.87,2.97-3.91,2.92-9.28-.64-12.82-2.92-2.9-7.9-4.01-11.53-1.82-2.78,1.67-3.83,4.64-4.31,7.79-2.04-1.73-3.8-3.96-5.17-5.79-2.88-3.86-5.18-8.2-7.05-12.63-1.09-2.6-2.04-5.26-2.92-7.94,.74-1.37,1.46-2.74,2.15-4.13,2.31-4.64,4.54-9.47,6.11-14.42,1.37-4.33,1.79-9.53-1.02-13.39-3.15-4.33-9.01-5.04-13.59-2.64-3.88,2.03-6.35,6.12-7.02,10.36-1.2,7.54,1.09,15.51,3.52,22.88-2.17,3.7-4.47,7.31-6.83,10.86-.82,1.24-1.68,2.46-2.52,3.69-.88-1.91-1.83-3.77-2.84-5.59-.03-.35-.08-.69-.15-1.03-.15-.67-.44-1.22-.82-1.64,1.12-2.47,1.92-5.12,2.4-7.65,1.95-10.29,.73-21.51-6.84-29.34-1.25-1.29-2.82-2.51-4.57-3.56-.01-1.28-.07-2.55-.19-3.81-.5-5.01-1.43-10.83-5.2-14.52-2.68-2.63-6.37-3.68-10.03-3.48,.34-.12,.68-.25,1.02-.4,3.63-1.62,6.54-4.95,7.12-8.94,.6-4.11-1.52-7.13-4.34-9.84-.2-.19-.59-.57-.84-.81,.03-.02,.05-.05,.09-.07,.59-.4,1-2.07,1.35-2.76,.32-.63,.66-1.26,.99-1.88,3.99,5.67,11.74,10.62,17.46,5.03,5.51-5.37,4.71-15.92,3.43-22.78-.4-2.12-.93-4.21-1.54-6.28,6.12-3.75,13.71-7,20.56-3.76,5.89,2.79,7.83,9.72,8.3,15.72,.09,1.1,.14,2.21,.17,3.32-4.48,4.11-8.86,8.33-12.85,12.93-5.34,6.14-11.81,13.86-12.78,22.21-1.15,9.95,8.5,18.17,17.74,12.57,14.21-8.61,16.91-28.52,17.26-43.7,7.83-7.09,15.8-14.04,22.6-22.13,3.54,3.16,6.73,6.54,9.4,10.32-1.33,1.61-2.6,3.28-3.78,4.97-5.17,7.4-9.4,15.94-11.39,24.78-1.82,8.1-3.23,21.79,5.79,26.28,8.76,4.37,17.37-1.75,21.68-9.29,4.09-7.15,5.89-15.58,5.42-23.77-.43-7.57-2.53-15-5.97-21.75,3.39-3.34,7.19-6.25,11.36-8.53,1.31-.72,2.69-1.38,4.11-1.97-.3,4.95-.6,9.86-1.16,14.63-2.27,19.22-6.93,38.16-13.41,56.38-2.91,8.18-6,16.6-10.41,24.14-2.41-2.77-5.13-5.27-8.23-7.27-6.95-4.5-17.26-6.38-24.42-1.29-6.17,4.39-7.61,12.65-4.93,19.46,3.07,7.81,10.63,12.27,18.97,11.93,7.32-.3,13.13-3.22,17.86-7.57,3.27,6.4,5.47,13.3,8.49,19.82,1.77,3.82,3.82,7.5,6.29,10.85-3.16,3.45-6.15,7.07-9.1,10.82-5.39,6.87-13.39,16.54-23.34,15-3.48-.54-6.97-2.76-8.17-6.17-.06-.17-.1-.34-.15-.51Zm-28.15-71.99c-.06-2.23,.58-7.8,4.09-7.37,2.83,.34,.26,6.57-.26,7.94-.82,2.17-1.74,4.3-2.71,6.4-.6-2.29-1.05-4.62-1.12-6.97Zm-14.86,66.43c.18,2.87,1.6,9.11-2.96,8.62-2.22-.24-4.25-1.68-6.08-2.86-1.35-.87-3.66-1.89-3.37-3.74,.33-2.1,2.22-4.16,3.4-5.85,1.68-2.39,3.38-4.75,5.08-7.12,.63-.88,1.27-1.75,1.9-2.63,1.04,4.48,1.74,9.03,2.02,13.59Zm-58.66,8.23c-.12-.07-.28-.19-.45-.36-.43-.44-.74-.97-1.02-1.53-.59-1.18-.91-2.47-1.03-3.76-.17-1.92-.15-3.83-.02-5.75,2,1.4,3.48,3.43,3.95,6.2,.22,1.3,.16,2.71-.39,3.93-.19,.41-.94,1.02-1.05,1.27Zm-32.45-1.64c.68-1.06,1.43-2.07,2.24-3.02,4.06,3.79,6.86,8.99,6.55,14.64-.18,3.27-1.69,6.78-4.85,8.14-2.5,1.08-5.05,.44-6.5-1.86-3.38-5.35-.48-13.13,2.56-17.91Zm1.47-15.05c-1.96-1.07-4-1.94-6.11-2.63,6.97-9.34,16.96-15.89,27.9-19.82,.61,4.69,0,9.52-.71,14.16-.08,.53-.17,1.07-.26,1.61-4.53-.14-9.15,.77-13.21,2.44-2.69,1.11-5.25,2.54-7.6,4.24Zm46.82-55.24c-1.9-2.46-4.11-5.01-5.08-8.01-1.08-3.34-.29-7.04,1.33-10.07,3.99-7.48,12.29-11.27,19.62-14.7,.23-.11,.43-.24,.62-.37,0,0,.02,0,.02,0,5.1,.64,5.54,6.65,5.82,10.77,.02,.24,.02,.49,.03,.73-4.83-.76-9.59,.44-12.34,5.19-4.15,7.14,.59,15.61,5.44,22.02-.36,.81-.7,1.62-1.03,2.45-1.89,4.8-2.95,10.06-1.66,15.16,1.3,5.16,5.07,9.18,10.46,9.83,1.95,.24,3.74,.09,5.38-.35-.79,1.09-1.66,2.12-2.64,3.07-3.41,3.32-7.9,5.74-12.66,6.34-5.92,.75-13.35-.92-18.71-3.51-3.99-1.94-6.44-5.26-8.72-8.81,6.56-1.39,13.77-3.15,17.83-8.93,5.02-7.15,.92-14.84-3.7-20.82Zm1.24-123.13c.64-2.27,1.23-4.56,1.8-6.84,.18-.71,.35-1.43,.52-2.14,2.02-.26,3.97-.78,5.81-1.55,.1,.52,.19,1.05,.3,1.57,1.58,7.7,3.46,17.21,9.33,22.95,1.88,1.84,4,2.94,6.18,3.4,1.29,3.79,2.79,7.54,4.2,11.31-7.4,8.03-13.79,16.74-18.72,26.52-1.29,2.55-2.86,5.28-2.73,8.23,.12,2.73,1.56,4.96,3.43,6.85,.32,.33,1.54,1.15,1.93,1.74-.27,1.37-2.82,1.4-3.82,1.37-2.68-.09-5.35-.87-8.01-1.22-1.67-.22-3.34-.35-5.01-.42,1.7-3.33,3.28-6.72,4.81-10.05,4.92-10.65,9.03-21.79,9.65-33.62,.52-9.94-1.49-21.63-9.66-28.09Zm-15.81-8.49c-2.63-1.99-7.39-5.9-7.22-9.63,.17-3.65,4.46,.67,5.58,1.75,2.88,2.8,5.95,5.12,9.62,6.42-.41,1.71-.84,3.41-1.29,5.11-2.32-1.02-4.62-2.09-6.68-3.65Zm26.96-23.05c.02,.27,.03,.49,.03,.47,0,.04,0,.08,0,.12-.01-.2-.02-.39-.03-.59Zm-4.89,6.38c.08,1.29,.19,2.58,.31,3.87-.49,.38-1.01,.72-1.56,1.02,.4-1.63,.82-3.26,1.25-4.89Zm22.65,23.1c.2-2.88,.96-7.17,3.3-9.15,3.02-2.56,5.33,2.77,5.3,5.09-.06,4.17-2.19,8.72-4.42,12.18-.75,1.17-1.71,2.4-2.85,3.33-.99-3.74-1.6-7.55-1.33-11.46Zm44.78,34.79c-.39-.81-.82-1.61-1.3-2.38-4.65-7.49-13.07-11.08-21.75-10.05-3.49,.41-6.76,1.44-9.87,2.84,1.53-1.87,3.09-3.7,4.76-5.45,4.6-4.81,9.6-9.87,16.76-7.42,6.24,2.14,9.54,8.38,10.8,14.48,.54,2.61,.67,5.3,.6,7.97Zm-41.07,15.95c0,1.38-.08,2.76-.32,4.12-.15,.87-.34,1.76-.62,2.6-.15,.44-.56,1.26-.65,1.52-.18-.11-1.01-.25-1.24-.34-.62-.24-1.29-.68-1.81-1.09-1.08-.87-2-2.11-2.55-3.38-.48-1.1-.71-2.14-.75-3.14,2.12-3.25,4.39-6.4,6.84-9.4,.68,2.98,1.11,6.01,1.1,9.11Zm-15.8,14.16c.02,.15-.08,.12,0,0h0Zm11.99,52.94c2.98,3.86,3.98,8.73,3.96,13.51,0,2.32-.2,4.78-.67,7.18-1.69-2.28-3.46-4.52-5.33-6.69-.86-1-1.73-2-2.58-3.01,1.29-2.88,2.54-5.77,3.39-8.84,.25-.93,.47-1.87,.68-2.82,.19,.22,.38,.45,.56,.68Zm-10.94,1.91c-1.19-2.37-3.23-7.21,.91-7.42,.66-.03,1.31,.02,1.95,.14-.31,2.08-.77,4.14-1.4,6.18-.24,.78-.52,1.55-.81,2.32-.23-.4-.45-.81-.66-1.22Zm2.45,18.5c2.59,3.19,5.04,6.42,7.3,9.78-1.92,1.68-4.6,2.75-6.58,.82-2.6-2.54-1.85-7.03-.72-10.6Zm46.57-73.27c-.23,1.69-.5,3.36-.81,5.02-1.33,7.13-3.68,14.39-9.17,19.43-2.05,1.88-4.82,3.36-5.52-.42-.65-3.52,2.26-7.46,4.06-10.22,3.27-5.02,7.24-9.55,11.45-13.81Zm20.78-62.65c-.42-5.72,4.71-14.15,11.36-10.82,7.99,4.01,5.83,14.98,2.82,21.44-1.07,2.31-2.31,4.51-3.66,6.65-5.1-4.69-10.01-10.3-10.52-17.27Zm26.4,50.38c2.64,6.64,3.83,14.03,2.86,21.13-.47,3.41-1.46,6.87-3.01,9.95-1.42,2.83-3.41,6.4-6.66,7.38-7.71,2.33-4.67-13.02-3.76-16.64,1.99-7.84,5.83-15.27,10.56-21.82Zm-8.27,84.13c-3.51,3.61-7.89,6.28-13.1,6.49-6,.25-11.37-3.28-11.47-9.68-.11-7.36,8.28-8.01,13.88-5.77,4.37,1.75,7.86,5.13,10.68,8.95Zm50.4-44.8c.3,.28,.59,.56,.89,.84,2.84,2.66,5.92,5.46,7.57,9.07,1.77,3.89,.71,8.11-.23,12.07-1.02,4.28-1.97,8.9-4.61,12.53-1.81,2.48-5,4.74-8.19,3.92-2.36-.6-4.07-2.94-5.07-5.31-2.99-7.1-1.14-16.02,2.1-22.7,1.94-4,4.6-7.32,7.53-10.42Zm.18-13.5c-2.44-3.32-3.82-7.02-1.66-10.53,1.56-2.54,4.61-3.98,7.33-4.92,1.75-.61,3.56-1.1,5.39-1.52-.98,3.54-2.58,6.9-4.71,9.86-1.86,2.59-4.06,4.9-6.35,7.12Zm21.57-27.85c-.46-6.43-2.56-12.81-6.42-17.94-5.68-7.55-14.52-11.13-23.88-10.73-.45,.02-.89,.05-1.33,.08,.73-7.77,2.09-15.65,5.66-22.6,3.94-7.69,10.18-12.93,18.84-14.28,8.3-1.29,17.08,.48,25.13,2.44,6.89,1.67,15.23,4.32,17.88,11.69,.27,.75,.46,1.51,.61,2.27-3.03-2.71-6.3-5.09-9.75-6.78-7.9-3.87-17.47-3.1-22.36,4.97-4.44,7.31-2.45,16.74,3.88,22.24,6.32,5.49,15.3,6.87,23.05,3.77,3.48-1.39,6.47-3.48,8.84-6.09,.3,.42,.61,.82,.89,1.25,.72,1.1,1.38,2.23,1.97,3.39-13.99,4.94-26.76,13.92-34.83,26.44-2.72-.25-5.45-.28-8.16-.12Zm34.04-38.04c-1.35,1.84-3.17,3.36-5.42,4.38-5.97,2.69-14.65,.92-17.01-5.86-.91-2.61-.31-5.77,1.66-7.76,2.5-2.52,6.23-1.75,9.08-.27,3.95,2.04,7.19,5.09,10.35,8.17,.45,.44,.89,.89,1.34,1.34Zm-67.8-39.97c-.16-.18-.31-.36-.44-.53-1.01-1.38-2-2.78-2.86-4.26-.01-.02-.02-.04-.03-.06,1.05-.05,2.07,.19,2.76,.98,.56,.64,.75,1.58,.82,2.4,.03,.34-.1,.9-.25,1.47Zm-2.25-50.01c3.97-3.19,8.19-6.16,12.67-8.59,4.23-2.29,9.01-4,13.78-2.5,4.18,1.31,7.77,4.5,10.82,7.59-3.39,4.01-7.56,7.35-12.43,9.39-7.1,2.98-15.54,3.39-22.71,.42-2.11-.87-3.98-2-5.67-3.33,1.16-1.02,2.34-2.02,3.54-2.99Zm-47.45,37.39c10.29,.27,19.09-6.71,25.48-14.06,3.52-4.04,6.68-8.38,10.28-12.35,.45-.5,.92-.97,1.38-1.46,.65,.56,1.3,1.11,1.99,1.62,6.53,4.87,15.04,7.02,23.12,6.51,11.3-.71,21.07-5.99,28.34-13.9,1.01,1.53,1.96,3.11,2.79,4.76,.87,1.72,1.57,3.66,2.24,5.66-.57,0-1.15,.03-1.74,.14-3.87,.72-7.2,3.22-9.95,5.91-2.61,2.55-4.77,5.64-7.96,7.52-6.9,4.06-14.74-2.47-21.65-3.69-7.67-1.35-15.31,1.54-17.57,9.56-.77,2.73-.76,5.37-.25,7.91-3.98,3.29-6.68,8.12-7.72,13.21-1.98,9.63,.79,19.77,3.68,28.94,1.44,4.57,3.07,9.11,5.12,13.45,.78,1.64,1.56,3.3,2.42,4.91-6.99,2.55-13.33,6.75-18.85,11.88-3.07-3.94-6.62-7.41-10.38-10.76,8.32-12.75,14.67-32.12-.66-41.82-6.27-3.96-13.68-2.68-18.96,1.78,.18-4.38,.08-8.82-1.39-12.94-2.25-6.3-7.07-10.42-12.81-13.55-.56-.31-1.14-.61-1.74-.92-.31-.84-.63-1.69-.96-2.53-1.24-3.19-2.62-6.65-1.46-10.06,.76-2.22,2.57-4.58,5.12-4.6,.88,0,1.86,.29,2.7,.79,.02,.27,.03,.55,.05,.82,.47,5.33,2.61,9.84,6.92,13.1,3.55,2.68,7.97,4.06,12.41,4.18Zm-30.63,16.28c-.23,2.72-.89,5.43-1.86,7.98-.5,1.31-1.19,2.5-1.83,3.74-.16,.31-.42,.45-.5,.52-.42-.22-.97-.92-1.12-1.11-3.61-4.42-3.5-11.2-2.41-16.47,.44-2.14,.9-4.85,2.33-6.59,1.13-1.37,2.57-1.25,4-.72,1.16,4.08,1.76,8.17,1.39,12.65Zm22.22-57.04s-.01-.07-.02-.11c.27,.15,.15,.08,0,0,0,0,0-.02,0-.03,.62,.23,.06,.47,.02,.14Zm-.07-.16s0,.01,0,.02c-.02-.01-.04-.02-.06-.03,.03,.02,.04,.02,.06,.04-.04,.15-.09,.5-.21,.65-.07,.1-.16,.18-.24,.27,.04-.26,.07-.52,.11-.77,.02-.11,.04-.21,.06-.31,.06,.03,.13,.08,.18,.1,.04,.01,.06,.02,.09,.03Zm-.69-.48s-.07,.07-.11,.12c-.34,.39-.34-.68,.11-.12Zm-28.88-46.18c-.06-2.23,.58-7.8,4.09-7.37,2.83,.34,.26,6.57-.26,7.94-.82,2.17-1.74,4.3-2.71,6.4-.6-2.29-1.05-4.62-1.12-6.97Zm-14.86,66.43c.18,2.87,1.6,9.11-2.96,8.62-2.22-.24-4.25-1.68-6.08-2.86-1.35-.87-3.66-1.89-3.37-3.74,.33-2.1,2.22-4.16,3.4-5.85,1.68-2.39,3.38-4.75,5.08-7.12,.63-.88,1.27-1.75,1.9-2.63,1.04,4.48,1.74,9.03,2.02,13.59Zm-12.77-71.06c2.98,3.86,3.98,8.73,3.96,13.51,0,2.32-.2,4.78-.67,7.18-1.69-2.28-3.46-4.52-5.33-6.69-.86-1-1.73-2-2.58-3.01,1.29-2.88,2.54-5.77,3.39-8.84,.25-.93,.47-1.87,.68-2.82,.19,.22,.38,.45,.56,.68Zm-10.94,1.91c-1.19-2.37-3.23-7.21,.91-7.42,.66-.03,1.31,.02,1.95,.14-.31,2.08-.77,4.14-1.4,6.18-.24,.78-.52,1.55-.81,2.32-.23-.4-.45-.81-.66-1.22Zm3.18,29.1c-2.6-2.54-1.85-7.03-.72-10.6,2.59,3.19,5.04,6.42,7.3,9.78-1.92,1.68-4.6,2.75-6.58,.82Zm-38.13,48.28c-.12-.07-.28-.19-.45-.36-.43-.44-.74-.97-1.02-1.53-.59-1.18-.91-2.47-1.03-3.76-.17-1.92-.15-3.83-.02-5.75,2,1.4,3.48,3.43,3.95,6.2,.22,1.3,.16,2.71-.39,3.93-.19,.41-.94,1.02-1.05,1.27Zm-32.45-1.64c.68-1.06,1.43-2.07,2.24-3.02,4.06,3.79,6.86,8.99,6.55,14.64-.18,3.27-1.69,6.78-4.85,8.14-2.5,1.08-5.05,.44-6.5-1.86-3.38-5.35-.48-13.13,2.56-17.91Zm1.47-15.05c-1.96-1.07-4-1.94-6.11-2.63,6.97-9.34,16.96-15.89,27.9-19.82,.61,4.69,0,9.52-.71,14.16-.08,.53-.17,1.07-.26,1.61-4.53-.14-9.15,.77-13.21,2.44-2.69,1.11-5.25,2.54-7.6,4.24Zm-37.28,46.51c1.77,3.89,.71,8.11-.23,12.07-1.02,4.28-1.97,8.9-4.61,12.53-1.81,2.48-5,4.74-8.19,3.92-2.36-.6-4.07-2.94-5.07-5.31-2.99-7.1-1.14-16.02,2.1-22.7,1.94-4,4.6-7.32,7.53-10.42,.3,.28,.59,.56,.89,.84,2.84,2.66,5.92,5.46,7.57,9.07Zm-1.94-30.53c-1.86,2.59-4.06,4.9-6.35,7.12-2.44-3.32-3.82-7.02-1.66-10.53,1.56-2.54,4.61-3.98,7.33-4.92,1.75-.61,3.56-1.1,5.39-1.52-.98,3.54-2.58,6.9-4.71,9.86Zm15.22-20.73c-.46-6.43-2.56-12.81-6.42-17.94-5.68-7.55-14.52-11.13-23.88-10.73-.45,.02-.89,.05-1.33,.08,.73-7.77,2.09-15.65,5.66-22.6,3.94-7.69,10.18-12.93,18.84-14.28,8.3-1.29,17.08,.48,25.13,2.44,6.89,1.67,15.23,4.32,17.88,11.69,.27,.75,.46,1.51,.61,2.27-3.03-2.71-6.3-5.09-9.75-6.78-7.9-3.87-17.47-3.1-22.36,4.97-4.44,7.31-2.45,16.74,3.88,22.24,6.32,5.49,15.3,6.87,23.05,3.77,3.48-1.39,6.47-3.48,8.84-6.09,.3,.42,.61,.82,.89,1.25,.72,1.1,1.38,2.23,1.97,3.39-13.99,4.94-26.76,13.92-34.83,26.44-2.72-.25-5.45-.28-8.16-.12Zm34.04-38.04c-1.35,1.84-3.17,3.36-5.42,4.38-5.97,2.69-14.65,.92-17.01-5.86-.91-2.61-.31-5.77,1.66-7.76,2.5-2.52,6.23-1.75,9.08-.27,3.95,2.04,7.19,5.09,10.35,8.17,.45,.44,.89,.89,1.34,1.34ZM39.82,203.3c-7.1,2.98-15.54,3.39-22.71,.42-2.11-.87-3.98-2-5.67-3.33,1.16-1.02,2.34-2.02,3.54-2.99,3.97-3.19,8.19-6.16,12.67-8.59,4.23-2.29,9.01-4,13.78-2.5,4.18,1.31,7.77,4.5,10.82,7.59-3.39,4.01-7.56,7.35-12.43,9.39Zm25.83-72.71c-3.21-8.57-6.7-16.97-6.44-26.29,.18-6.41,1.87-12.69,4.63-18.45,1.3,.34,2.58,.76,3.83,1.27-1.22,1.52-2.32,3.14-3.27,4.85-3.81,6.8-5.89,15.6-2.98,23.12,3.38,8.74,12.78,12.36,21.15,7.94,8.24-4.36,10.56-14.85,8.43-23.3-1.3-5.15-4.18-9.77-7.94-13.52,2.33-1.31,4.85-2.28,7.48-2.83,1.19-.25,2.46-.39,3.75-.4-.67,5.58-.66,11.21,1.76,16.21,1.7,3.52,4.76,6.59,8.76,7.12,4.6,.6,8.68-2.35,10.6-6.41,3.88-8.22,.02-17.93-7.3-22.74-1.04-.68-2.14-1.25-3.27-1.74,.66-3.75,1.32-7.5,1.53-11.25,1.76,2.22,3.86,4.16,6.37,5.6,6.62,3.81,15.46,6.15,23.08,5.36,6.77-.7,13.08-3.73,17.97-8.45,1.62-1.57,3.1-3.35,4.36-5.25,.34,.8,.68,1.6,1,2.42-3.38,4.7-6.8,9.36-10.15,14.07-3.26,4.58-7.43,9.79-6,15.81,1.26,5.31,7.03,8.85,11.63,11.06,4.77,2.29,10.56,2.83,15-.52,4.71-3.55,4.64-9.44,4.3-14.78-.52-8.11-2.06-16.12-4.58-23.82,.19-.26,.38-.52,.56-.78,2.98-4.23,5.9-8.51,8.65-12.89,2.8,7.05,6.38,13.76,11.44,19.49,2.42,2.74,5.31,5.38,8.64,7.03-.14,1.5-.28,3.02-.39,4.54-.15-.04-.3-.08-.45-.11-5.82-1.17-11.42,1.99-14.21,7.1-2.69,4.94-2.41,10.09-.87,15.17-2.45,.1-4.79,1.04-6.79,3.37-3.95,4.6-4.94,11.64-5.15,17.49-.23,6.49,1.51,14.49,7.04,18.57,2.63,1.95,5.94,2.52,8.92,.92,3.22-1.72,4.87-5.73,6.16-8.92,2.29-5.64,2.98-11.75,2.4-17.77,2.02,1.6,3.7,3.54,4.63,6.08,3.07,8.45-.42,18.9,1.84,27.5,.24,3.66,1.31,7.33,2.99,10.72,2.66,5.34,6.69,9.63,11.02,13.61-1.17,1.42-2.39,2.8-3.65,4.15-2.36,2.53-4.83,4.96-7.34,7.34,.01-.15,.03-.3,.05-.45,.46-4.79,.34-9.62-.73-14.32-1.96-8.58-7.41-16.14-15.9-19.12-3.85-1.35-8.29-1.55-12.18-.24-4.43,1.49-7.99,4.71-11.11,8.08-2.9,3.13-5.66,6.45-7.96,10.02-.22-.59-.44-1.18-.65-1.77-.31-.85-.62-1.71-.92-2.58,1.86-.95,3.58-2.31,5.03-4.04,5.03-6.02,9.78-16.23,6.58-24-1.45-3.53-4.6-6.64-8.43-7.42-4.46-.91-8.46,1.42-10.91,5.07-4.14,6.17-4.43,14.3-3.34,21.39,.07,.43,.16,.86,.24,1.3-1.15-1.34-2.03-3-2.71-4.42-1.91-3.98-3.1-8.45-4.21-12.71-.43-1.66-.81-3.33-1.16-5.01,2.82-2.32,5.09-5.39,6.51-9.11,1.66-4.35,1.53-8.75,.84-13.27-.53-3.46-1.39-7.16-3.79-9.84-3.38-3.76-8.8-3.4-12.49-.29-3.7,3.13-5.05,8.36-6.42,12.82-1.36,4.43-2.47,8.91-3.54,13.42-3.21-1.54-5.41-4.47-8.33-6.66-4.48-3.36-10.85-4.42-15.36-.5-9.04,7.84-1.14,19.84,5.96,25.59,3.49,2.83,7.24,4.58,11.18,6.39-1.87,5.38-4.23,10.59-7.49,15.24-1.88-6.14-4.91-12-9.27-16.27-4.34-4.25-10.76-4.57-15.22-.29-4.21,4.04-4.45,10.11-3.56,15.51,1.42,8.64,7.26,17.73,16.63,18.73,1.35,.14,2.66,.1,3.92-.09-.24,3.49-.94,6.97-2.11,10.3-1.53,4.35-3.95,8.55-6.95,12.06-1.9,2.21-6.34,7.81-9.78,6.95-.16-.08-.32-.15-.49-.21,.81,.3-.42-.32-.65-.46-.12-.08-.24-.17-.36-.25-1.68-1.73-2.55-5.28-3.14-7.13-1.57-4.9-3.41-9.65-6.11-14.05-.71-1.16-1.49-2.33-2.32-3.49,1.31-2.18,2.48-4.48,3.48-6.86,7.5-17.91,4.72-37.99-1.92-55.7Zm21.07,31.41c.87,.38,1.77,1.88,2.31,2.66,1.48,2.14,2.8,4.41,3.86,6.79,1.13,2.56,1.96,5.22,2.49,7.93-.84,.28-1.7,.39-2.58,.25-3.2-.5-5.45-3.92-6.57-6.85-.88-2.29-3.08-9.55,.28-10.84,.04-.02,.06-.03,.08-.04,.02,.03,.05,.06,.14,.09ZM17.22,247.41c-.16-.18-.31-.36-.44-.53-1.01-1.38-2-2.78-2.86-4.26-.01-.02-.02-.04-.03-.06,1.05-.05,2.07,.19,2.76,.98,.56,.64,.75,1.58,.82,2.4,.03,.34-.1,.9-.25,1.47Zm-13.3,18.93c-1.07-5.92-1.32-12.49,1.8-17.86,.39-.67,.83-1.31,1.32-1.92,1.22,2.12,2.66,4.15,4.13,6.07,2.46,3.2,6.04,6.01,10.1,3.47,3.17-1.98,4.29-6.65,4.15-10.16-.31-7.52-6.77-12.14-13.75-10.79-.01-2.21,.73-4.25,2.88-5.42,4.82-2.63,11.57,1.71,15.98,3.37,6.08,2.29,12.63,2.5,18.03-1.54,2.54-1.9,4.68-4.24,6.89-6.49,1.77-1.8,4.73-5.15,7.55-5.18,1.21-.01,3.46,1.78,4.74,2.76,.1,.08,.2,.16,.3,.24,1.53,2.12,3.51,3.82,6.31,4.74,9.9,3.26,19.49-8.04,24.12-15.36,5.19-8.21,7.87-18.13,7.32-27.84,3.76-3.36,6.78-7.85,9.06-11.89,1.79-3.17,3.29-6.47,4.61-9.86,.97,1.45,1.69,3.12,2.21,5.05,2.76,10.19,.56,21.14-2.81,30.9-3.03,8.77-7.05,17.65-12,25.64-3.58,.53-7.12,1.31-10.61,2.23-5.23,1.39-10.79,2.8-15.01,6.36-3.87,3.26-6.09,8.91-4.46,13.87,1.13,3.42,3.39,4.97,6.99,4.84,2.83-.1,5.7-.61,8.37-1.55,5.16-1.82,9.81-4.82,13.72-8.64,2.32-2.26,4.37-4.77,6.22-7.42,4.29-.35,8.61-.25,12.94,.55,2.6,.48,5.26,.91,7.88,.78-2.54,.8-4.81,2.18-6.91,3.81-5.58,3.04-10.75,6.73-14.3,12.21-4.78,7.39-5.18,16.35-.43,23.82,2.48,3.9,10.66,11.19,6.47,16.08-1.94,2.27-5.4,3.13-8.16,3.83-2.15,.55-4.32,.99-6.49,1.47-1.44-3.22-3.32-6.29-5.57-9.19-.47-.6-.96-1.21-1.45-1.82,.36-1.26,.63-2.56,.79-3.9,.98-8.63-2.98-16.7-9.88-21.77-6.53-4.8-14.98-6.59-22.81-7.99-8.72-1.56-17.98-2.47-26.61,.11-8.32,2.48-14.93,8.19-19.26,15.64-4.05,6.97-6.1,14.64-7.27,22.57-.65-1.55-1.28-3.1-1.84-4.66-2.23-6.22-4.09-12.65-5.26-19.16Zm92.18-29.42c-2.82,2.12-5.99,3.69-9.44,4.38,1.57-2.01,5.92-3.46,9.44-4.38Zm-58.41,139.76c1.77,3.89,.71,8.11-.23,12.07-1.02,4.28-1.97,8.9-4.61,12.53-1.81,2.48-5,4.74-8.19,3.92-2.36-.6-4.07-2.94-5.07-5.31-2.99-7.1-1.14-16.02,2.1-22.7,1.94-4,4.6-7.32,7.53-10.42,.3,.28,.59,.56,.89,.84,2.84,2.66,5.92,5.46,7.57,9.07Zm-1.94-30.53c-1.86,2.59-4.06,4.9-6.35,7.12-2.44-3.32-3.82-7.02-1.66-10.53,1.56-2.54,4.61-3.98,7.33-4.92,1.75-.61,3.56-1.1,5.39-1.52-.98,3.54-2.58,6.9-4.71,9.86Zm15.22-20.73c-.46-6.43-2.56-12.81-6.42-17.94-5.68-7.55-14.52-11.13-23.88-10.73-.45,.02-.89,.05-1.33,.08,.73-7.77,2.09-15.65,5.66-22.6,3.94-7.69,10.18-12.93,18.84-14.28,8.3-1.29,17.08,.48,25.13,2.44,6.89,1.67,15.23,4.32,17.88,11.69,.27,.75,.46,1.51,.61,2.27-3.03-2.71-6.3-5.09-9.75-6.78-7.9-3.87-17.47-3.1-22.36,4.97-4.44,7.31-2.45,16.74,3.88,22.24,6.32,5.49,15.3,6.87,23.05,3.77,3.48-1.39,6.47-3.48,8.84-6.09,.3,.42,.61,.82,.89,1.25,.72,1.1,1.38,2.23,1.97,3.39-13.99,4.94-26.76,13.92-34.83,26.44-2.72-.25-5.45-.28-8.16-.12Zm34.04-38.04c-1.35,1.84-3.17,3.36-5.42,4.38-5.97,2.69-14.65,.92-17.01-5.86-.91-2.61-.31-5.77,1.66-7.76,2.5-2.52,6.23-1.75,9.08-.27,3.95,2.04,7.19,5.09,10.35,8.17,.45,.44,.89,.89,1.34,1.34Zm-45.2,165.92c-7.1,2.98-15.54,3.39-22.71,.42-2.11-.87-3.98-2-5.67-3.33,1.16-1.02,2.34-2.02,3.54-2.99,3.97-3.19,8.19-6.16,12.67-8.59,4.23-2.29,9.01-4,13.78-2.5,4.18,1.31,7.77,4.5,10.82,7.59-3.39,4.01-7.56,7.35-12.43,9.39Zm46.9-41.3c.87,.38,1.77,1.88,2.31,2.66,1.48,2.14,2.8,4.41,3.86,6.79,1.13,2.56,1.96,5.22,2.49,7.93-.84,.28-1.7,.39-2.58,.25-3.2-.5-5.45-3.92-6.57-6.85-.88-2.29-3.08-9.55,.28-10.84,.04-.02,.06-.03,.08-.04,.02,.03,.05,.06,.14,.09Zm47.46-41.75c.02,.27,.03,.49,.03,.47,0,.04,0,.08,0,.12-.01-.2-.02-.39-.03-.59Zm-4.89,6.38c.08,1.29,.19,2.58,.31,3.87-.49,.38-1.01,.72-1.56,1.02,.4-1.63,.82-3.26,1.25-4.89Zm-15.39,20.32c-2.32-1.02-4.62-2.09-6.68-3.65-2.63-1.99-7.39-5.9-7.22-9.63,.17-3.65,4.46,.67,5.58,1.75,2.88,2.8,5.95,5.12,9.62,6.42-.41,1.71-.84,3.41-1.29,5.11Zm-27.25,94.35c1.57-2.01,5.92-3.46,9.44-4.38-2.82,2.12-5.99,3.69-9.44,4.38Zm45.78-34.3c-1.29,2.55-2.86,5.28-2.73,8.23,.12,2.73,1.56,4.96,3.43,6.85,.32,.33,1.54,1.15,1.93,1.74-.27,1.37-2.82,1.4-3.82,1.37-2.68-.09-5.35-.87-8.01-1.22-1.67-.22-3.34-.35-5.01-.42,1.7-3.33,3.28-6.72,4.81-10.05,4.92-10.65,9.03-21.79,9.65-33.62,.52-9.94-1.49-21.63-9.66-28.09,.64-2.27,1.23-4.56,1.8-6.84,.18-.71,.35-1.43,.52-2.14,2.02-.26,3.97-.78,5.81-1.55,.1,.52,.19,1.05,.3,1.57,1.58,7.7,3.46,17.21,9.33,22.95,1.88,1.84,4,2.94,6.18,3.4,1.29,3.79,2.79,7.54,4.2,11.31-7.4,8.03-13.79,16.74-18.72,26.52Zm19.5-57.27c.2-2.88,.96-7.17,3.3-9.15,3.02-2.56,5.33,2.77,5.3,5.09-.06,4.17-2.19,8.72-4.42,12.18-.75,1.17-1.71,2.4-2.85,3.33-.99-3.74-1.6-7.55-1.33-11.46Zm-12.09,64.9c.02,.15-.08,.12,0,0h0Zm15.48-10.05c-.15,.87-.34,1.76-.62,2.6-.15,.44-.56,1.26-.65,1.52-.18-.11-1.01-.25-1.24-.34-.62-.24-1.29-.68-1.81-1.09-1.08-.87-2-2.11-2.55-3.38-.48-1.1-.71-2.14-.75-3.14,2.12-3.25,4.39-6.4,6.84-9.4,.68,2.98,1.11,6.01,1.1,9.11,0,1.38-.08,2.76-.32,4.12Zm18.35-32.49c-3.49,.41-6.76,1.44-9.87,2.84,1.53-1.87,3.09-3.7,4.76-5.45,4.6-4.81,9.6-9.87,16.76-7.42,6.24,2.14,9.54,8.38,10.8,14.48,.54,2.61,.67,5.3,.6,7.97-.39-.81-.82-1.61-1.3-2.38-4.65-7.49-13.07-11.08-21.75-10.05Zm15.44,47.64c-1.33,7.13-3.68,14.39-9.17,19.43-2.05,1.88-4.82,3.36-5.52-.42-.65-3.52,2.26-7.46,4.06-10.22,3.27-5.02,7.24-9.55,11.45-13.81-.23,1.69-.5,3.36-.81,5.02Zm23.02-38.78c-2.36,2.53-4.83,4.96-7.34,7.34,.01-.15,.03-.3,.05-.45,.46-4.79,.34-9.62-.73-14.32-1.96-8.58-7.41-16.14-15.9-19.12-3.85-1.35-8.29-1.55-12.18-.24-4.43,1.49-7.99,4.71-11.11,8.08-2.9,3.13-5.66,6.45-7.96,10.02-.22-.59-.44-1.18-.65-1.77-.31-.85-.62-1.71-.92-2.58,1.86-.95,3.58-2.31,5.03-4.04,5.03-6.02,9.78-16.23,6.58-24-1.45-3.53-4.6-6.64-8.43-7.42-4.46-.91-8.46,1.42-10.91,5.07-4.14,6.17-4.43,14.3-3.34,21.39,.07,.43,.16,.86,.24,1.3-1.15-1.34-2.03-3-2.71-4.42-1.91-3.98-3.1-8.45-4.21-12.71-.43-1.66-.81-3.33-1.16-5.01,2.82-2.32,5.09-5.39,6.51-9.11,1.66-4.35,1.53-8.75,.84-13.27-.53-3.46-1.39-7.16-3.79-9.84-3.38-3.76-8.8-3.4-12.49-.29-3.7,3.13-5.05,8.36-6.42,12.82-1.36,4.43-2.47,8.91-3.54,13.42-3.21-1.54-5.41-4.47-8.33-6.66-4.48-3.36-10.85-4.42-15.36-.5-9.04,7.84-1.14,19.84,5.96,25.59,3.49,2.83,7.24,4.58,11.18,6.39-1.87,5.38-4.23,10.59-7.49,15.24-1.88-6.14-4.91-12-9.27-16.27-4.34-4.25-10.76-4.57-15.22-.29-4.21,4.04-4.45,10.11-3.56,15.51,1.42,8.64,7.26,17.73,16.63,18.73,1.35,.14,2.66,.1,3.92-.09-.24,3.49-.94,6.97-2.11,10.3-1.53,4.35-3.95,8.55-6.95,12.06-1.9,2.21-6.34,7.81-9.78,6.95-.16-.08-.32-.15-.49-.21,.81,.3-.42-.32-.65-.46-.12-.08-.24-.17-.36-.25-1.68-1.73-2.55-5.28-3.14-7.13-1.57-4.9-3.41-9.65-6.11-14.05-.71-1.16-1.49-2.33-2.32-3.49,1.31-2.18,2.48-4.48,3.48-6.86,7.5-17.91,4.72-37.99-1.92-55.7-3.21-8.57-6.7-16.97-6.44-26.29,.18-6.41,1.87-12.69,4.63-18.45,1.3,.34,2.58,.76,3.83,1.27-1.22,1.52-2.32,3.14-3.27,4.85-3.81,6.8-5.89,15.6-2.98,23.12,3.38,8.74,12.78,12.36,21.15,7.94,8.24-4.36,10.56-14.85,8.43-23.3-1.3-5.15-4.18-9.77-7.94-13.52,2.33-1.31,4.85-2.28,7.48-2.83,1.19-.25,2.46-.39,3.75-.4-.67,5.58-.66,11.21,1.76,16.21,1.7,3.52,4.76,6.59,8.76,7.12,4.6,.6,8.68-2.35,10.6-6.41,3.88-8.22,.02-17.93-7.3-22.74-1.04-.68-2.14-1.25-3.27-1.74,.66-3.75,1.32-7.5,1.53-11.25,1.76,2.22,3.86,4.16,6.37,5.6,6.62,3.81,15.46,6.15,23.08,5.36,6.77-.7,13.08-3.73,17.97-8.45,1.62-1.57,3.1-3.35,4.36-5.25,.34,.8,.68,1.6,1,2.42-3.38,4.7-6.8,9.36-10.15,14.07-3.26,4.58-7.43,9.79-6,15.81,1.26,5.31,7.03,8.85,11.63,11.06,4.77,2.29,10.56,2.83,15-.52,4.71-3.55,4.64-9.44,4.3-14.78-.52-8.11-2.06-16.12-4.58-23.82,.19-.26,.38-.52,.56-.78,2.98-4.23,5.9-8.51,8.65-12.89,2.8,7.05,6.38,13.76,11.44,19.49,2.42,2.74,5.31,5.38,8.64,7.03-.14,1.5-.28,3.02-.39,4.54-.15-.04-.3-.08-.45-.11-5.82-1.17-11.42,1.99-14.21,7.1-2.69,4.94-2.41,10.09-.87,15.17-2.45,.1-4.79,1.04-6.79,3.37-3.95,4.6-4.94,11.64-5.15,17.49-.23,6.49,1.51,14.49,7.04,18.57,2.63,1.95,5.94,2.52,8.92,.92,3.22-1.72,4.87-5.73,6.16-8.92,2.29-5.64,2.98-11.75,2.4-17.77,2.02,1.6,3.7,3.54,4.63,6.08,3.07,8.45-.42,18.9,1.84,27.5,.24,3.66,1.31,7.33,2.99,10.72,2.66,5.34,6.69,9.63,11.02,13.61-1.17,1.42-2.39,2.8-3.65,4.15Zm-25.24-54.88c-.23,2.72-.89,5.43-1.86,7.98-.5,1.31-1.19,2.5-1.83,3.74-.16,.31-.42,.45-.5,.52-.42-.22-.97-.92-1.12-1.11-3.61-4.42-3.5-11.2-2.41-16.47,.44-2.14,.9-4.85,2.33-6.59,1.13-1.37,2.57-1.25,4-.72,1.16,4.08,1.76,8.17,1.39,12.65Zm37.99,36.61c-1.07,2.31-2.31,4.51-3.66,6.65-5.1-4.69-10.01-10.3-10.52-17.27-.42-5.72,4.71-14.15,11.36-10.82,7.99,4.01,5.83,14.98,2.82,21.44Zm15.09,60.89c-.47,3.41-1.46,6.87-3.01,9.95-1.42,2.83-3.41,6.4-6.66,7.38-7.71,2.33-4.67-13.02-3.76-16.64,1.99-7.84,5.83-15.27,10.56-21.82,2.64,6.64,3.83,14.03,2.86,21.13Zm-1.3-37.27c-3.07-3.94-6.62-7.41-10.38-10.76,8.32-12.75,14.67-32.12-.66-41.82-6.27-3.96-13.68-2.68-18.96,1.78,.18-4.38,.08-8.82-1.39-12.94-2.25-6.3-7.07-10.42-12.81-13.55-.56-.31-1.14-.61-1.74-.92-.31-.84-.63-1.69-.96-2.53-1.24-3.19-2.62-6.65-1.46-10.06,.76-2.22,2.57-4.58,5.12-4.6,.88,0,1.86,.29,2.7,.79,.02,.27,.03,.55,.05,.82,.47,5.33,2.61,9.84,6.92,13.1,3.55,2.68,7.97,4.06,12.41,4.18,10.29,.27,19.09-6.71,25.48-14.06,3.52-4.04,6.68-8.38,10.28-12.35,.45-.5,.92-.97,1.38-1.46,.65,.56,1.3,1.11,1.99,1.62,6.53,4.87,15.04,7.02,23.12,6.51,11.3-.71,21.07-5.99,28.34-13.9,1.01,1.53,1.96,3.11,2.79,4.76,.87,1.72,1.57,3.66,2.24,5.66-.57,0-1.15,.03-1.74,.14-3.87,.72-7.2,3.22-9.95,5.91-2.61,2.55-4.77,5.64-7.96,7.52-6.9,4.06-14.74-2.47-21.65-3.69-7.67-1.35-15.31,1.54-17.57,9.56-.77,2.73-.76,5.37-.25,7.91-3.98,3.29-6.68,8.12-7.72,13.21-1.98,9.63,.79,19.77,3.68,28.94,1.44,4.57,3.07,9.11,5.12,13.45,.78,1.64,1.56,3.3,2.42,4.91-6.99,2.55-13.33,6.75-18.85,11.88Zm98.05-149.3c.87,.38,1.77,1.88,2.31,2.66,1.48,2.14,2.8,4.41,3.86,6.79,1.13,2.56,1.96,5.22,2.49,7.93-.84,.28-1.7,.39-2.58,.25-3.2-.5-5.45-3.92-6.57-6.85-.88-2.29-3.08-9.55,.28-10.84,.04-.02,.06-.03,.08-.04,.02,.03,.05,.06,.14,.09Zm19.07,22.44c3.76-3.36,6.78-7.85,9.06-11.89,1.79-3.17,3.29-6.47,4.61-9.86,.97,1.45,1.69,3.12,2.21,5.05,2.76,10.19,.56,21.14-2.81,30.9-3.03,8.77-7.05,17.65-12,25.64-3.58,.53-7.12,1.31-10.61,2.23-5.23,1.39-10.79,2.8-15.01,6.36-3.87,3.26-6.09,8.91-4.46,13.87,1.13,3.42,3.39,4.97,6.99,4.84,2.83-.1,5.7-.61,8.37-1.55,5.16-1.82,9.81-4.82,13.72-8.64,2.32-2.26,4.37-4.77,6.22-7.42,4.29-.35,8.61-.25,12.94,.55,2.6,.48,5.26,.91,7.88,.78-2.54,.8-4.81,2.18-6.91,3.81-5.58,3.04-10.75,6.73-14.3,12.21-4.78,7.39-5.18,16.35-.43,23.82,2.48,3.9,10.66,11.19,6.47,16.08-1.94,2.27-5.4,3.13-8.16,3.83-2.15,.55-4.32,.99-6.49,1.47-1.44-3.22-3.32-6.29-5.57-9.19-.47-.6-.96-1.21-1.45-1.82,.36-1.26,.63-2.56,.79-3.9,.98-8.63-2.98-16.7-9.88-21.77-6.53-4.8-14.98-6.59-22.81-7.99-8.72-1.56-17.98-2.47-26.61,.11-8.32,2.48-14.93,8.19-19.26,15.64-4.05,6.97-6.1,14.64-7.27,22.57-.65-1.55-1.28-3.1-1.84-4.66-2.23-6.22-4.09-12.65-5.26-19.16-1.07-5.92-1.32-12.49,1.8-17.86,.39-.67,.83-1.31,1.32-1.92,1.22,2.12,2.66,4.15,4.13,6.07,2.46,3.2,6.04,6.01,10.1,3.47,3.17-1.98,4.29-6.65,4.15-10.16-.31-7.52-6.77-12.14-13.75-10.79-.01-2.21,.73-4.25,2.88-5.42,4.82-2.63,11.57,1.71,15.98,3.37,6.08,2.29,12.63,2.5,18.03-1.54,2.54-1.9,4.68-4.24,6.89-6.49,1.77-1.8,4.73-5.15,7.55-5.18,1.21-.01,3.46,1.78,4.74,2.76,.1,.08,.2,.16,.3,.24,1.53,2.12,3.51,3.82,6.31,4.74,9.9,3.26,19.49-8.04,24.12-15.36,5.19-8.21,7.87-18.13,7.32-27.84Zm28.4-64.19c.02,.27,.03,.49,.03,.47,0,.04,0,.08,0,.12-.01-.2-.02-.39-.03-.59Zm-4.89,6.38c.08,1.29,.19,2.58,.31,3.87-.49,.38-1.01,.72-1.56,1.02,.4-1.63,.82-3.26,1.25-4.89Zm-15.39,20.32c-2.32-1.02-4.62-2.09-6.68-3.65-2.63-1.99-7.39-5.9-7.22-9.63,.17-3.65,4.46,.67,5.58,1.75,2.88,2.8,5.95,5.12,9.62,6.42-.41,1.71-.84,3.41-1.29,5.11Zm-17.81,89.97c-2.82,2.12-5.99,3.69-9.44,4.38,1.57-2.01,5.92-3.46,9.44-4.38Zm-78.88,10.49c-.16-.18-.31-.36-.44-.53-1.01-1.38-2-2.78-2.86-4.26-.01-.02-.02-.04-.03-.06,1.05-.05,2.07,.19,2.76,.98,.56,.64,.75,1.58,.82,2.4,.03,.34-.1,.9-.25,1.47Zm18.54,98.74c-1.86,2.59-4.06,4.9-6.35,7.12-2.44-3.32-3.82-7.02-1.66-10.53,1.56-2.54,4.61-3.98,7.33-4.92,1.75-.61,3.56-1.1,5.39-1.52-.98,3.54-2.58,6.9-4.71,9.86Zm15.22-20.73c-.46-6.43-2.56-12.81-6.42-17.94-5.68-7.55-14.52-11.13-23.88-10.73-.45,.02-.89,.05-1.33,.08,.73-7.77,2.09-15.65,5.66-22.6,3.94-7.69,10.18-12.93,18.84-14.28,8.3-1.29,17.08,.48,25.13,2.44,6.89,1.67,15.23,4.32,17.88,11.69,.27,.75,.46,1.51,.61,2.27-3.03-2.71-6.3-5.09-9.75-6.78-7.9-3.87-17.47-3.1-22.36,4.97-4.44,7.31-2.45,16.74,3.88,22.24,6.32,5.49,15.3,6.87,23.05,3.77,3.48-1.39,6.47-3.48,8.84-6.09,.3,.42,.61,.82,.89,1.25,.72,1.1,1.38,2.23,1.97,3.39-13.99,4.94-26.76,13.92-34.83,26.44-2.72-.25-5.45-.28-8.16-.12Zm34.04-38.04c-1.35,1.84-3.17,3.36-5.42,4.38-5.97,2.69-14.65,.92-17.01-5.86-.91-2.61-.31-5.77,1.66-7.76,2.5-2.52,6.23-1.75,9.08-.27,3.95,2.04,7.19,5.09,10.35,8.17,.45,.44,.89,.89,1.34,1.34Zm-2.72,69.46c-.18,3.27-1.69,6.78-4.85,8.14-2.5,1.08-5.05,.44-6.5-1.86-3.38-5.35-.48-13.13,2.56-17.91,.68-1.06,1.43-2.07,2.24-3.02,4.06,3.79,6.86,8.99,6.55,14.64Zm25.09-15.17c.22,1.3,.16,2.71-.39,3.93-.19,.41-.94,1.02-1.05,1.27-.12-.07-.28-.19-.45-.36-.43-.44-.74-.97-1.02-1.53-.59-1.18-.91-2.47-1.03-3.76-.17-1.92-.15-3.83-.02-5.75,2,1.4,3.48,3.43,3.95,6.2Zm-24.82-15.73c-2.69,1.11-5.25,2.54-7.6,4.24-1.96-1.07-4-1.94-6.11-2.63,6.97-9.34,16.96-15.89,27.9-19.82,.61,4.69,0,9.52-.71,14.16-.08,.53-.17,1.07-.26,1.61-4.53-.14-9.15,.77-13.21,2.44Zm58.33-56.44c-1.19-2.37-3.23-7.21,.91-7.42,.66-.03,1.31,.02,1.95,.14-.31,2.08-.77,4.14-1.4,6.18-.24,.78-.52,1.55-.81,2.32-.23-.4-.45-.81-.66-1.22Zm2.45,18.5c2.59,3.19,5.04,6.42,7.3,9.78-1.92,1.68-4.6,2.75-6.58,.82-2.6-2.54-1.85-7.03-.72-10.6Zm8.48-20.41c2.98,3.86,3.98,8.73,3.96,13.51,0,2.32-.2,4.78-.67,7.18-1.69-2.28-3.46-4.52-5.33-6.69-.86-1-1.73-2-2.58-3.01,1.29-2.88,2.54-5.77,3.39-8.84,.25-.93,.47-1.87,.68-2.82,.19,.22,.38,.45,.56,.68Zm-7.71-15.04c.02,.24,.02,.49,.03,.73-4.83-.76-9.59,.44-12.34,5.19-4.15,7.14,.59,15.61,5.44,22.02-.36,.81-.7,1.62-1.03,2.45-1.89,4.8-2.95,10.06-1.66,15.16,1.3,5.16,5.07,9.18,10.46,9.83,1.95,.24,3.74,.09,5.38-.35-.79,1.09-1.66,2.12-2.64,3.07-3.41,3.32-7.9,5.74-12.66,6.34-5.92,.75-13.35-.92-18.71-3.51-3.99-1.94-6.44-5.26-8.72-8.81,6.56-1.39,13.77-3.15,17.83-8.93,5.02-7.15,.92-14.84-3.7-20.82-1.9-2.46-4.11-5.01-5.08-8.01-1.08-3.34-.29-7.04,1.33-10.07,3.99-7.48,12.29-11.27,19.62-14.7,.23-.11,.43-.24,.62-.37,0,0,.02,0,.02,0,5.1,.64,5.54,6.65,5.82,10.77Zm-11.69-45.54c-1.29,2.55-2.86,5.28-2.73,8.23,.12,2.73,1.56,4.96,3.43,6.85,.32,.33,1.54,1.15,1.93,1.74-.27,1.37-2.82,1.4-3.82,1.37-2.68-.09-5.35-.87-8.01-1.22-1.67-.22-3.34-.35-5.01-.42,1.7-3.33,3.28-6.72,4.81-10.05,4.92-10.65,9.03-21.79,9.65-33.62,.52-9.94-1.49-21.63-9.66-28.09,.64-2.27,1.23-4.56,1.8-6.84,.18-.71,.35-1.43,.52-2.14,2.02-.26,3.97-.78,5.81-1.55,.1,.52,.19,1.05,.3,1.57,1.58,7.7,3.46,17.21,9.33,22.95,1.88,1.84,4,2.94,6.18,3.4,1.29,3.79,2.79,7.54,4.2,11.31-7.4,8.03-13.79,16.74-18.72,26.52Zm19.5-57.27c.2-2.88,.96-7.17,3.3-9.15,3.02-2.56,5.33,2.77,5.3,5.09-.06,4.17-2.19,8.72-4.42,12.18-.75,1.17-1.71,2.4-2.85,3.33-.99-3.74-1.6-7.55-1.33-11.46Zm-12.09,64.9c.02,.15-.08,.12,0,0h0Zm15.48-10.05c-.15,.87-.34,1.76-.62,2.6-.15,.44-.56,1.26-.65,1.52-.18-.11-1.01-.25-1.24-.34-.62-.24-1.29-.68-1.81-1.09-1.08-.87-2-2.11-2.55-3.38-.48-1.1-.71-2.14-.75-3.14,2.12-3.25,4.39-6.4,6.84-9.4,.68,2.98,1.11,6.01,1.1,9.11,0,1.38-.08,2.76-.32,4.12Zm18.35-32.49c-3.49,.41-6.76,1.44-9.87,2.84,1.53-1.87,3.09-3.7,4.76-5.45,4.6-4.81,9.6-9.87,16.76-7.42,6.24,2.14,9.54,8.38,10.8,14.48,.54,2.61,.67,5.3,.6,7.97-.39-.81-.82-1.61-1.3-2.38-4.65-7.49-13.07-11.08-21.75-10.05Zm15.44,47.64c-1.33,7.13-3.68,14.39-9.17,19.43-2.05,1.88-4.82,3.36-5.52-.42-.65-3.52,2.26-7.46,4.06-10.22,3.27-5.02,7.24-9.55,11.45-13.81-.23,1.69-.5,3.36-.81,5.02Zm32.94-78.49c7.99,4.01,5.83,14.98,2.82,21.44-1.07,2.31-2.31,4.51-3.66,6.65-5.1-4.69-10.01-10.3-10.52-17.27-.42-5.72,4.71-14.15,11.36-10.82Zm-35.17-15.17c-.23,2.72-.89,5.43-1.86,7.98-.5,1.31-1.19,2.5-1.83,3.74-.16,.31-.42,.45-.5,.52-.42-.22-.97-.92-1.12-1.11-3.61-4.42-3.5-11.2-2.41-16.47,.44-2.14,.9-4.85,2.33-6.59,1.13-1.37,2.57-1.25,4-.72,1.16,4.08,1.76,8.17,1.39,12.65Zm22.22-57.04s-.01-.07-.02-.11c.27,.15,.15,.08,0,0,0,0,0-.02,0-.03,.62,.23,.06,.47,.02,.14Zm-.07-.16s0,.01,0,.02c-.02-.01-.04-.02-.06-.03,.03,.02,.04,.02,.06,.04-.04,.15-.09,.5-.21,.65-.07,.1-.16,.18-.24,.27,.04-.26,.07-.52,.11-.77,.02-.11,.04-.21,.06-.31,.06,.03,.13,.08,.18,.1,.04,.01,.06,.02,.09,.03Zm-.69-.48s-.07,.07-.11,.12c-.34,.39-.34-.68,.11-.12Zm-28.88-46.18c-.06-2.23,.58-7.8,4.09-7.37,2.83,.34,.26,6.57-.26,7.94-.82,2.17-1.74,4.3-2.71,6.4-.6-2.29-1.05-4.62-1.12-6.97Zm-14.86,66.43c.18,2.87,1.6,9.11-2.96,8.62-2.22-.24-4.25-1.68-6.08-2.86-1.35-.87-3.66-1.89-3.37-3.74,.33-2.1,2.22-4.16,3.4-5.85,1.68-2.39,3.38-4.75,5.08-7.12,.63-.88,1.27-1.75,1.9-2.63,1.04,4.48,1.74,9.03,2.02,13.59Zm-15.63-10.74c-3.26,4.58-7.43,9.79-6,15.81,1.26,5.31,7.03,8.85,11.63,11.06,4.77,2.29,10.56,2.83,15-.52,4.71-3.55,4.64-9.44,4.3-14.78-.52-8.11-2.06-16.12-4.58-23.82,.19-.26,.38-.52,.56-.78,2.98-4.23,5.9-8.51,8.65-12.89,2.8,7.05,6.38,13.76,11.44,19.49,2.42,2.74,5.31,5.38,8.64,7.03-.14,1.5-.28,3.02-.39,4.54-.15-.04-.3-.08-.45-.11-5.82-1.17-11.42,1.99-14.21,7.1-2.69,4.94-2.41,10.09-.87,15.17-2.45,.1-4.79,1.04-6.79,3.37-3.95,4.6-4.94,11.64-5.15,17.49-.23,6.49,1.51,14.49,7.04,18.57,2.63,1.95,5.94,2.52,8.92,.92,3.22-1.72,4.87-5.73,6.16-8.92,2.29-5.64,2.98-11.75,2.4-17.77,2.02,1.6,3.7,3.54,4.63,6.08,3.07,8.45-.42,18.9,1.84,27.5,.24,3.66,1.31,7.33,2.99,10.72,2.66,5.34,6.69,9.63,11.02,13.61-1.17,1.42-2.39,2.8-3.65,4.15-2.36,2.53-4.83,4.96-7.34,7.34,.01-.15,.03-.3,.05-.45,.46-4.79,.34-9.62-.73-14.32-1.96-8.58-7.41-16.14-15.9-19.12-3.85-1.35-8.29-1.55-12.18-.24-4.43,1.49-7.99,4.71-11.11,8.08-2.9,3.13-5.66,6.45-7.96,10.02-.22-.59-.44-1.18-.65-1.77-.31-.85-.62-1.71-.92-2.58,1.86-.95,3.58-2.31,5.03-4.04,5.03-6.02,9.78-16.23,6.58-24-1.45-3.53-4.6-6.64-8.43-7.42-4.46-.91-8.46,1.42-10.91,5.07-4.14,6.17-4.43,14.3-3.34,21.39,.07,.43,.16,.86,.24,1.3-1.15-1.34-2.03-3-2.71-4.42-1.91-3.98-3.1-8.45-4.21-12.71-.43-1.66-.81-3.33-1.16-5.01,2.82-2.32,5.09-5.39,6.51-9.11,1.66-4.35,1.53-8.75,.84-13.27-.53-3.46-1.39-7.16-3.79-9.84-3.38-3.76-8.8-3.4-12.49-.29-3.7,3.13-5.05,8.36-6.42,12.82-1.36,4.43-2.47,8.91-3.54,13.42-3.21-1.54-5.41-4.47-8.33-6.66-4.48-3.36-10.85-4.42-15.36-.5-9.04,7.84-1.14,19.84,5.96,25.59,3.49,2.83,7.24,4.58,11.18,6.39-1.87,5.38-4.23,10.59-7.49,15.24-1.88-6.14-4.91-12-9.27-16.27-4.34-4.25-10.76-4.57-15.22-.29-4.21,4.04-4.45,10.11-3.56,15.51,1.42,8.64,7.26,17.73,16.63,18.73,1.35,.14,2.66,.1,3.92-.09-.24,3.49-.94,6.97-2.11,10.3-1.53,4.35-3.95,8.55-6.95,12.06-1.9,2.21-6.34,7.81-9.78,6.95-.16-.08-.32-.15-.49-.21,.81,.3-.42-.32-.65-.46-.12-.08-.24-.17-.36-.25-1.68-1.73-2.55-5.28-3.14-7.13-1.57-4.9-3.41-9.65-6.11-14.05-.71-1.16-1.49-2.33-2.32-3.49,1.31-2.18,2.48-4.48,3.48-6.86,7.5-17.91,4.72-37.99-1.92-55.7-3.21-8.57-6.7-16.97-6.44-26.29,.18-6.41,1.87-12.69,4.63-18.45,1.3,.34,2.58,.76,3.83,1.27-1.22,1.52-2.32,3.14-3.27,4.85-3.81,6.8-5.89,15.6-2.98,23.12,3.38,8.74,12.78,12.36,21.15,7.94,8.24-4.36,10.56-14.85,8.43-23.3-1.3-5.15-4.18-9.77-7.94-13.52,2.33-1.31,4.85-2.28,7.48-2.83,1.19-.25,2.46-.39,3.75-.4-.67,5.58-.66,11.21,1.76,16.21,1.7,3.52,4.76,6.59,8.76,7.12,4.6,.6,8.68-2.35,10.6-6.41,3.88-8.22,.02-17.93-7.3-22.74-1.04-.68-2.14-1.25-3.27-1.74,.66-3.75,1.32-7.5,1.53-11.25,1.76,2.22,3.86,4.16,6.37,5.6,6.62,3.81,15.46,6.15,23.08,5.36,6.77-.7,13.08-3.73,17.97-8.45,1.62-1.57,3.1-3.35,4.36-5.25,.34,.8,.68,1.6,1,2.42-3.38,4.7-6.8,9.36-10.15,14.07Zm-8.08-58.42c-1.19-2.37-3.23-7.21,.91-7.42,.66-.03,1.31,.02,1.95,.14-.31,2.08-.77,4.14-1.4,6.18-.24,.78-.52,1.55-.81,2.32-.23-.4-.45-.81-.66-1.22Zm2.45,18.5c2.59,3.19,5.04,6.42,7.3,9.78-1.92,1.68-4.6,2.75-6.58,.82-2.6-2.54-1.85-7.03-.72-10.6Zm8.48-20.41c2.98,3.86,3.98,8.73,3.96,13.51,0,2.32-.2,4.78-.67,7.18-1.69-2.28-3.46-4.52-5.33-6.69-.86-1-1.73-2-2.58-3.01,1.29-2.88,2.54-5.77,3.39-8.84,.25-.93,.47-1.87,.68-2.82,.19,.22,.38,.45,.56,.68Zm-7.71-15.04c.02,.24,.02,.49,.03,.73-4.83-.76-9.59,.44-12.34,5.19-4.15,7.14,.59,15.61,5.44,22.02-.36,.81-.7,1.62-1.03,2.45-1.89,4.8-2.95,10.06-1.66,15.16,1.3,5.16,5.07,9.18,10.46,9.83,1.95,.24,3.74,.09,5.38-.35-.79,1.09-1.66,2.12-2.64,3.07-3.41,3.32-7.9,5.74-12.66,6.34-5.92,.75-13.35-.92-18.71-3.51-3.99-1.94-6.44-5.26-8.72-8.81,6.56-1.39,13.77-3.15,17.83-8.93,5.02-7.15,.92-14.84-3.7-20.82-1.9-2.46-4.11-5.01-5.08-8.01-1.08-3.34-.29-7.04,1.33-10.07,3.99-7.48,12.29-11.27,19.62-14.7,.23-.11,.43-.24,.62-.37,0,0,.02,0,.02,0,5.1,.64,5.54,6.65,5.82,10.77Zm-11.69-45.54c-1.29,2.55-2.86,5.28-2.73,8.23,.12,2.73,1.56,4.96,3.43,6.85,.32,.33,1.54,1.15,1.93,1.74-.27,1.37-2.82,1.4-3.82,1.37-2.68-.09-5.35-.87-8.01-1.22-1.67-.22-3.34-.35-5.01-.42,1.7-3.33,3.28-6.72,4.81-10.05,4.92-10.65,9.03-21.79,9.65-33.62,.52-9.94-1.49-21.63-9.66-28.09,.64-2.27,1.23-4.56,1.8-6.84,.18-.71,.35-1.43,.52-2.14,2.02-.26,3.97-.78,5.81-1.55,.1,.52,.19,1.05,.3,1.57,1.58,7.7,3.46,17.21,9.33,22.95,1.88,1.84,4,2.94,6.18,3.4,1.29,3.79,2.79,7.54,4.2,11.31-7.4,8.03-13.79,16.74-18.72,26.52Zm7.41,7.63c.02,.15-.08,.12,0,0h0Zm15.48-10.05c-.15,.87-.34,1.76-.62,2.6-.15,.44-.56,1.26-.65,1.52-.18-.11-1.01-.25-1.24-.34-.62-.24-1.29-.68-1.81-1.09-1.08-.87-2-2.11-2.55-3.38-.48-1.1-.71-2.14-.75-3.14,2.12-3.25,4.39-6.4,6.84-9.4,.68,2.98,1.11,6.01,1.1,9.11,0,1.38-.08,2.76-.32,4.12Zm18.35-32.49c-3.49,.41-6.76,1.44-9.87,2.84,1.53-1.87,3.09-3.7,4.76-5.45,4.6-4.81,9.6-9.87,16.76-7.42,6.24,2.14,9.54,8.38,10.8,14.48,.54,2.61,.67,5.3,.6,7.97-.39-.81-.82-1.61-1.3-2.38-4.65-7.49-13.07-11.08-21.75-10.05Zm15.44,47.64c-1.33,7.13-3.68,14.39-9.17,19.43-2.05,1.88-4.82,3.36-5.52-.42-.65-3.52,2.26-7.46,4.06-10.22,3.27-5.02,7.24-9.55,11.45-13.81-.23,1.69-.5,3.36-.81,5.02Zm21.59-67.67c-.42-5.72,4.71-14.15,11.36-10.82,7.99,4.01,5.83,14.98,2.82,21.44-1.07,2.31-2.31,4.51-3.66,6.65-5.1-4.69-10.01-10.3-10.52-17.27Zm29.26,71.51c-.47,3.41-1.46,6.87-3.01,9.95-1.42,2.83-3.41,6.4-6.66,7.38-7.71,2.33-4.67-13.02-3.76-16.64,1.99-7.84,5.83-15.27,10.56-21.82,2.64,6.64,3.83,14.03,2.86,21.13Z"/><path d="M458.98,193.85s-.02,0-.03-.02c-.01,0-.02,0-.03-.01,.01,0,.03,.01,.06,.03Z"/><path d="M427.82,19.64c2.63,1.95,5.94,2.52,8.92,.92,3.22-1.72,4.87-5.73,6.16-8.92,1.51-3.72,2.31-7.66,2.52-11.64h-8.48c-.02,.36-.02,.71-.05,1.07-.23,2.72-.89,5.43-1.86,7.98-.5,1.31-1.19,2.5-1.83,3.74-.16,.31-.42,.45-.5,.52-.42-.22-.97-.92-1.12-1.11-2.69-3.29-3.31-7.89-3.01-12.2h-7.74c-.02,.36-.03,.72-.05,1.07-.23,6.49,1.51,14.49,7.04,18.57Z"/><path d="M496.85,0c-.21,.7-.4,1.41-.55,2.12-1.98,9.63,.79,19.77,3.68,28.94,0,.02,.01,.03,.02,.05V0h-3.15Z"/><path d="M208.98,318.85s-.02,0-.03-.02c-.01,0-.02,0-.03-.01,.01,0,.03,.01,.06,.03Z"/><path d="M21.27,6.1c2.03-1.27,3.22-3.64,3.77-6.1H9.24c.63,.9,1.27,1.77,1.93,2.63,2.46,3.2,6.04,6.01,10.1,3.47Z"/><path d="M180.26,0h-7.07c2.17,.76,4.59,.84,7.07,0Z"/><path d="M233.18,0h-8.81c3.05,1.08,6.04,.95,8.81,0Z"/><path d="M265.66,35.76c6.79,6.19,16.6,4.91,22.84-1.44,3.21-3.26,5.17-7.5,6.52-11.82,1.38-4.42,2.51-9.1,3-13.71,.33-3.19-.07-6.1-1-8.8h-10.24c.33,.54,.65,1.1,.91,1.68,1.77,3.89,.71,8.11-.23,12.07-1.02,4.28-1.97,8.9-4.61,12.53-1.81,2.48-5,4.74-8.19,3.92-2.36-.6-4.07-2.94-5.07-5.31-2.99-7.1-1.14-16.02,2.1-22.7,.37-.76,.77-1.48,1.18-2.19h-10.62c-2.03,4.83-3.25,9.99-3.59,15.27-.46,7.14,1.5,15.51,6.98,20.5Z"/><path d="M208.98,68.85s-.02,0-.03-.02c-.01,0-.02,0-.03-.01,.01,0,.03,.01,.06,.03Z"/><path d="M92.14,.03s.05-.02,.07-.03h-13.44c1.23,1.13,2.88,1.65,5,1.58,2.83-.1,5.7-.61,8.37-1.55Z"/></g></g></svg>